<svg preserveAspectRatio="none" width="100%" height="100%" overflow="visible" style="display: block;" viewBox="0 0 24 24" fill="none" xmlns="http://www.w3.org/2000/svg">
<g id="Cart Icon">
<mask id="mask0_0_311" style="mask-type:alpha" maskUnits="userSpaceOnUse" x="0" y="0" width="24" height="24">
<rect id="Bounding box" width="24" height="24" fill="var(--fill-0, #D9D9D9)"/>
</mask>
<g mask="url(#mask0_0_311)">
<path id="add_shopping_cart" d="M11 9V6H8.00005V4H11V0.999998H13V4H16V6H13V9H11ZM5.58755 21.4125C5.19588 21.0208 5.00005 20.55 5.00005 20C5.00005 19.45 5.19588 18.9792 5.58755 18.5875C5.97922 18.1958 6.45005 18 7.00005 18C7.55005 18 8.02088 18.1958 8.41255 18.5875C8.80422 18.9792 9.00005 19.45 9.00005 20C9.00005 20.55 8.80422 21.0208 8.41255 21.4125C8.02088 21.8042 7.55005 22 7.00005 22C6.45005 22 5.97922 21.8042 5.58755 21.4125ZM15.5875 21.4125C15.1959 21.0208 15 20.55 15 20C15 19.45 15.1959 18.9792 15.5875 18.5875C15.9792 18.1958 16.45 18 17 18C17.55 18 18.0209 18.1958 18.4125 18.5875C18.8042 18.9792 19 19.45 19 20C19 20.55 18.8042 21.0208 18.4125 21.4125C18.0209 21.8042 17.55 22 17 22C16.45 22 15.9792 21.8042 15.5875 21.4125ZM1.00005 4V2H4.27505L8.52505 11H15.525L19.4251 4H21.7L17.3001 11.95C17.1167 12.2833 16.8709 12.5417 16.5625 12.725C16.2542 12.9083 15.9167 13 15.55 13H8.10005L7.00005 15H19V17H7.00005C6.25005 17 5.67922 16.675 5.28755 16.025C4.89588 15.375 4.88338 14.7167 5.25005 14.05L6.60005 11.6L3.00005 4H1.00005Z" fill="var(--fill-0, white)"/>
</g>
</g>
</svg>
