<svg preserveAspectRatio="none" width="100%" height="100%" overflow="visible" style="display: block;" viewBox="0 0 20 20" fill="none" xmlns="http://www.w3.org/2000/svg">
<g id="Engineering Icon">
<path id="Vector" d="M15 10.8333V9.16667H18.3333V10.8333H15ZM16 16.6667L13.3333 14.6667L14.3333 13.3333L17 15.3333L16 16.6667ZM14.3333 6.66667L13.3333 5.33333L16 3.33333L17 4.66667L14.3333 6.66667ZM4.16667 15.8333V12.5H3.33333C2.875 12.5 2.48264 12.3368 2.15625 12.0104C1.82986 11.684 1.66667 11.2917 1.66667 10.8333V9.16667C1.66667 8.70833 1.82986 8.31597 2.15625 7.98958C2.48264 7.6632 2.875 7.5 3.33333 7.5H6.66667L10.8333 5V15L6.66667 12.5H5.83333V15.8333H4.16667ZM9.16667 12.0417V7.95833L7.125 9.16667H3.33333V10.8333H7.125L9.16667 12.0417ZM11.6667 12.7917V7.20833C12.0417 7.54167 12.3437 7.94792 12.5729 8.42708C12.8021 8.90625 12.9167 9.43056 12.9167 10C12.9167 10.5694 12.8021 11.0938 12.5729 11.5729C12.3437 12.0521 12.0417 12.4583 11.6667 12.7917Z" fill="var(--fill-0, #1B1C1A)"/>
</g>
</svg>
