<svg preserveAspectRatio="none" width="100%" height="100%" overflow="visible" style="display: block;" viewBox="0 0 20 20" fill="none" xmlns="http://www.w3.org/2000/svg">
<g id="Engineering Icon">
<path id="Vector" d="M8.5625 10C8.17361 10 7.85417 9.85417 7.60417 9.5625C7.35417 9.27083 7.26389 8.93056 7.33333 8.54167L7.58333 7.04167C7.69444 6.44444 7.97569 5.95486 8.42708 5.57292C8.87847 5.19097 9.40278 5 10 5C10.6111 5 11.1424 5.19097 11.5938 5.57292C12.0451 5.95486 12.3264 6.44444 12.4375 7.04167L12.6875 8.54167C12.7569 8.93056 12.6667 9.27083 12.4167 9.5625C12.1667 9.85417 11.8472 10 11.4583 10H8.5625ZM9.0625 8.33333H10.9583L10.7917 7.3125C10.7639 7.11806 10.6736 6.96181 10.5208 6.84375C10.3681 6.72569 10.1944 6.66667 10 6.66667C9.80556 6.66667 9.63542 6.72569 9.48958 6.84375C9.34375 6.96181 9.25694 7.11806 9.22917 7.3125L9.0625 8.33333ZM2.58333 10.8125C2.26389 10.8264 1.98958 10.7639 1.76042 10.625C1.53125 10.4861 1.38194 10.2708 1.3125 9.97917C1.28472 9.85417 1.27778 9.72917 1.29167 9.60417C1.30556 9.47917 1.34028 9.36111 1.39583 9.25C1.39583 9.26389 1.38889 9.23611 1.375 9.16667C1.34722 9.13889 1.27778 8.97222 1.16667 8.66667C1.13889 8.5 1.15972 8.34028 1.22917 8.1875C1.29861 8.03472 1.38889 7.90278 1.5 7.79167L1.54167 7.75C1.56944 7.48611 1.67708 7.26389 1.86458 7.08333C2.05208 6.90278 2.28472 6.8125 2.5625 6.8125C2.60417 6.8125 2.73611 6.84028 2.95833 6.89583L3.02083 6.875C3.09028 6.80556 3.18056 6.75347 3.29167 6.71875C3.40278 6.68403 3.52083 6.66667 3.64583 6.66667C3.79861 6.66667 3.93403 6.69097 4.05208 6.73958C4.17014 6.78819 4.26389 6.86111 4.33333 6.95833C4.34722 6.95833 4.35764 6.96181 4.36458 6.96875C4.37153 6.97569 4.38194 6.97917 4.39583 6.97917C4.59028 6.99306 4.76042 7.05208 4.90625 7.15625C5.05208 7.26042 5.15972 7.40278 5.22917 7.58333C5.25694 7.68056 5.26736 7.77431 5.26042 7.86458C5.25347 7.95486 5.23611 8.04167 5.20833 8.125C5.20833 8.13889 5.21528 8.16667 5.22917 8.20833C5.32639 8.30556 5.40278 8.41319 5.45833 8.53125C5.51389 8.64931 5.54167 8.77083 5.54167 8.89583C5.54167 8.95139 5.5 9.09722 5.41667 9.33333C5.40278 9.36111 5.40278 9.38889 5.41667 9.41667L5.45833 9.75C5.45833 10.0417 5.33681 10.2917 5.09375 10.5C4.85069 10.7083 4.55556 10.8125 4.20833 10.8125H2.58333ZM16.6667 10.8333C16.2083 10.8333 15.816 10.6701 15.4896 10.3438C15.1632 10.0174 15 9.625 15 9.16667C15 9 15.0243 8.84375 15.0729 8.69792C15.1215 8.55208 15.1875 8.40972 15.2708 8.27083L14.6875 7.75C14.5486 7.63889 14.5243 7.5 14.6146 7.33333C14.7049 7.16667 14.8333 7.08333 15 7.08333H16.6667C17.125 7.08333 17.5174 7.24653 17.8438 7.57292C18.1701 7.89931 18.3333 8.29167 18.3333 8.75V9.16667C18.3333 9.625 18.1701 10.0174 17.8438 10.3438C17.5174 10.6701 17.125 10.8333 16.6667 10.8333ZM0 15V13.6875C0 13.0764 0.309028 12.5868 0.927083 12.2188C1.54514 11.8507 2.34722 11.6667 3.33333 11.6667C3.51389 11.6667 3.6875 11.6701 3.85417 11.6771C4.02083 11.684 4.18056 11.7014 4.33333 11.7292C4.13889 12.0069 3.99306 12.3056 3.89583 12.625C3.79861 12.9444 3.75 13.2847 3.75 13.6458V15H0ZM5 15V13.6458C5 12.7431 5.46181 12.0139 6.38542 11.4583C7.30903 10.9028 8.51389 10.625 10 10.625C11.5 10.625 12.7083 10.9028 13.625 11.4583C14.5417 12.0139 15 12.7431 15 13.6458V15H5ZM16.6667 11.6667C17.6667 11.6667 18.4722 11.8507 19.0833 12.2188C19.6944 12.5868 20 13.0764 20 13.6875V15H16.25V13.6458C16.25 13.2847 16.2049 12.9444 16.1146 12.625C16.0243 12.3056 15.8889 12.0069 15.7083 11.7292C15.8611 11.7014 16.0174 11.684 16.1771 11.6771C16.3368 11.6701 16.5 11.6667 16.6667 11.6667ZM10 12.2917C9.20833 12.2917 8.5 12.3958 7.875 12.6042C7.25 12.8125 6.88194 13.0556 6.77083 13.3333H13.25C13.125 13.0556 12.7535 12.8125 12.1354 12.6042C11.5174 12.3958 10.8056 12.2917 10 12.2917Z" fill="var(--fill-0, #1B1C1A)"/>
</g>
</svg>
