<svg preserveAspectRatio="none" width="100%" height="100%" overflow="visible" style="display: block;" viewBox="0 0 20 20" fill="none" xmlns="http://www.w3.org/2000/svg">
<g id="Engineering Icon">
<path id="Vector" d="M15.75 17.5L11.1875 12.9375L12.9375 11.1875L17.5 15.75L15.75 17.5ZM4.25 17.5L2.5 15.75L8.25 10L6.83333 8.58333L6.25 9.16667L5.1875 8.10417V9.8125L4.60417 10.3958L2.08333 7.875L2.66667 7.29167H4.375L3.33333 6.25L6.29167 3.29167C6.56944 3.01389 6.86806 2.8125 7.1875 2.6875C7.50694 2.5625 7.83333 2.5 8.16667 2.5C8.5 2.5 8.82639 2.5625 9.14583 2.6875C9.46528 2.8125 9.76389 3.01389 10.0417 3.29167L8.125 5.20833L9.16667 6.25L8.58333 6.83333L10 8.25L11.875 6.375C11.8194 6.22222 11.7743 6.0625 11.7396 5.89583C11.7049 5.72917 11.6875 5.5625 11.6875 5.39583C11.6875 4.57639 11.9687 3.88542 12.5312 3.32292C13.0938 2.76042 13.7847 2.47917 14.6042 2.47917C14.8125 2.47917 15.0104 2.5 15.1979 2.54167C15.3854 2.58333 15.5764 2.64583 15.7708 2.72917L13.7083 4.79167L15.2083 6.29167L17.2708 4.22917C17.3681 4.42361 17.434 4.61458 17.4688 4.80208C17.5035 4.98958 17.5208 5.1875 17.5208 5.39583C17.5208 6.21528 17.2396 6.90625 16.6771 7.46875C16.1146 8.03125 15.4236 8.3125 14.6042 8.3125C14.4375 8.3125 14.2708 8.29861 14.1042 8.27083C13.9375 8.24305 13.7778 8.19444 13.625 8.125L4.25 17.5Z" fill="var(--fill-0, #1B1C1A)"/>
</g>
</svg>
