<svg preserveAspectRatio="none" width="100%" height="100%" overflow="visible" style="display: block;" viewBox="0 0 20 20" fill="none" xmlns="http://www.w3.org/2000/svg">
<g id="Engineering Icon">
<path id="Vector" d="M10 18.3333C8.86111 18.3333 7.78472 18.1146 6.77083 17.6771C5.75694 17.2396 4.87153 16.6424 4.11458 15.8854C3.35764 15.1285 2.76042 14.2431 2.32292 13.2292C1.88542 12.2153 1.66667 11.1389 1.66667 10C1.66667 8.84722 1.89236 7.76389 2.34375 6.75C2.79514 5.73611 3.40625 4.85417 4.17708 4.10417C4.94792 3.35417 5.84722 2.76042 6.875 2.32292C7.90278 1.88542 9 1.66667 10.1667 1.66667C11.2778 1.66667 12.3264 1.85764 13.3125 2.23958C14.2986 2.62153 15.1632 3.1493 15.9062 3.82292C16.6493 4.49653 17.2396 5.29514 17.6771 6.21875C18.1146 7.14236 18.3333 8.13889 18.3333 9.20833C18.3333 10.8056 17.8472 12.0312 16.875 12.8854C15.9028 13.7396 14.7222 14.1667 13.3333 14.1667H11.7917C11.6667 14.1667 11.5799 14.2014 11.5312 14.2708C11.4826 14.3403 11.4583 14.4167 11.4583 14.5C11.4583 14.6667 11.5625 14.9062 11.7708 15.2187C11.9792 15.5312 12.0833 15.8889 12.0833 16.2917C12.0833 16.9861 11.8924 17.5 11.5104 17.8333C11.1285 18.1667 10.625 18.3333 10 18.3333ZM6.3125 10.4792C6.54861 10.2431 6.66667 9.94444 6.66667 9.58333C6.66667 9.22222 6.54861 8.92361 6.3125 8.6875C6.07639 8.45139 5.77778 8.33333 5.41667 8.33333C5.05555 8.33333 4.75694 8.45139 4.52083 8.6875C4.28472 8.92361 4.16667 9.22222 4.16667 9.58333C4.16667 9.94444 4.28472 10.2431 4.52083 10.4792C4.75694 10.7153 5.05555 10.8333 5.41667 10.8333C5.77778 10.8333 6.07639 10.7153 6.3125 10.4792ZM8.8125 7.14583C9.04861 6.90972 9.16667 6.61111 9.16667 6.25C9.16667 5.88889 9.04861 5.59028 8.8125 5.35417C8.57639 5.11805 8.27778 5 7.91667 5C7.55555 5 7.25694 5.11805 7.02083 5.35417C6.78472 5.59028 6.66667 5.88889 6.66667 6.25C6.66667 6.61111 6.78472 6.90972 7.02083 7.14583C7.25694 7.38194 7.55555 7.5 7.91667 7.5C8.27778 7.5 8.57639 7.38194 8.8125 7.14583ZM12.9792 7.14583C13.2153 6.90972 13.3333 6.61111 13.3333 6.25C13.3333 5.88889 13.2153 5.59028 12.9792 5.35417C12.7431 5.11805 12.4444 5 12.0833 5C11.7222 5 11.4236 5.11805 11.1875 5.35417C10.9514 5.59028 10.8333 5.88889 10.8333 6.25C10.8333 6.61111 10.9514 6.90972 11.1875 7.14583C11.4236 7.38194 11.7222 7.5 12.0833 7.5C12.4444 7.5 12.7431 7.38194 12.9792 7.14583ZM15.4792 10.4792C15.7153 10.2431 15.8333 9.94444 15.8333 9.58333C15.8333 9.22222 15.7153 8.92361 15.4792 8.6875C15.2431 8.45139 14.9444 8.33333 14.5833 8.33333C14.2222 8.33333 13.9236 8.45139 13.6875 8.6875C13.4514 8.92361 13.3333 9.22222 13.3333 9.58333C13.3333 9.94444 13.4514 10.2431 13.6875 10.4792C13.9236 10.7153 14.2222 10.8333 14.5833 10.8333C14.9444 10.8333 15.2431 10.7153 15.4792 10.4792ZM10 16.6667C10.125 16.6667 10.2257 16.6319 10.3021 16.5625C10.3785 16.4931 10.4167 16.4028 10.4167 16.2917C10.4167 16.0972 10.3125 15.8681 10.1042 15.6042C9.89583 15.3403 9.79167 14.9444 9.79167 14.4167C9.79167 13.8333 9.99305 13.3681 10.3958 13.0208C10.7986 12.6736 11.2917 12.5 11.875 12.5H13.3333C14.25 12.5 15.0347 12.2326 15.6875 11.6979C16.3403 11.1632 16.6667 10.3333 16.6667 9.20833C16.6667 7.52778 16.0243 6.12847 14.7396 5.01042C13.4549 3.89236 11.9306 3.33333 10.1667 3.33333C8.27778 3.33333 6.66667 3.97917 5.33333 5.27083C4 6.5625 3.33333 8.13889 3.33333 10C3.33333 11.8472 3.98264 13.4201 5.28125 14.7187C6.57986 16.0174 8.15278 16.6667 10 16.6667Z" fill="var(--fill-0, #1B1C1A)"/>
</g>
</svg>
