<svg preserveAspectRatio="none" width="100%" height="100%" overflow="visible" style="display: block;" viewBox="0 0 20 20" fill="none" xmlns="http://www.w3.org/2000/svg">
<g id="Engineering Icon">
<path id="Vector" d="M8.75 12.9167H11.25V10.8333H13.3333V8.33333H11.25V6.25H8.75V8.33333H6.66667V10.8333H8.75V12.9167ZM10 18.3333C8.06945 17.8472 6.4757 16.7396 5.21875 15.0104C3.96181 13.2812 3.33333 11.3611 3.33333 9.25V4.16667L10 1.66667L16.6667 4.16667V9.25C16.6667 11.3611 16.0382 13.2812 14.7813 15.0104C13.5243 16.7396 11.9306 17.8472 10 18.3333ZM10 16.5833C11.4444 16.125 12.6389 15.2083 13.5833 13.8333C14.5278 12.4583 15 10.9306 15 9.25V5.3125L10 3.4375L5 5.3125V9.25C5 10.9306 5.47222 12.4583 6.41667 13.8333C7.36111 15.2083 8.55556 16.125 10 16.5833Z" fill="var(--fill-0, #1B1C1A)"/>
</g>
</svg>
