<svg preserveAspectRatio="none" width="100%" height="100%" overflow="visible" style="display: block;" viewBox="0 0 20 20" fill="none" xmlns="http://www.w3.org/2000/svg">
<g id="Engineering Icon">
<path id="Vector" d="M8.33333 11.6667H11.6667V10H8.33333V11.6667ZM8.33333 9.16667H15V7.5H8.33333V9.16667ZM8.33333 6.66667H15V5H8.33333V6.66667ZM6.66667 15C6.20833 15 5.81597 14.8368 5.48958 14.5104C5.16319 14.184 5 13.7917 5 13.3333V3.33333C5 2.875 5.16319 2.48264 5.48958 2.15625C5.81597 1.82986 6.20833 1.66667 6.66667 1.66667H16.6667C17.125 1.66667 17.5174 1.82986 17.8437 2.15625C18.1701 2.48264 18.3333 2.875 18.3333 3.33333V13.3333C18.3333 13.7917 18.1701 14.184 17.8437 14.5104C17.5174 14.8368 17.125 15 16.6667 15H6.66667ZM6.66667 13.3333H16.6667V3.33333H6.66667V13.3333ZM3.33333 18.3333C2.875 18.3333 2.48264 18.1701 2.15625 17.8437C1.82986 17.5174 1.66667 17.125 1.66667 16.6667V5H3.33333V16.6667H15V18.3333H3.33333Z" fill="var(--fill-0, white)"/>
</g>
</svg>
