<svg preserveAspectRatio="none" width="100%" height="100%" overflow="visible" style="display: block;" viewBox="0 0 20 20" fill="none" xmlns="http://www.w3.org/2000/svg">
<g id="Engineering Icon">
<path id="Vector" d="M0.875 17.5V15.1667C0.875 14.7083 0.993056 14.2778 1.22917 13.875C1.46528 13.4722 1.79167 13.1667 2.20833 12.9583C2.91667 12.5972 3.71528 12.2917 4.60417 12.0417C5.49306 11.7917 6.47222 11.6667 7.54167 11.6667C8.61111 11.6667 9.59028 11.7917 10.4792 12.0417C11.3681 12.2917 12.1667 12.5972 12.875 12.9583C13.2917 13.1667 13.6181 13.4722 13.8542 13.875C14.0903 14.2778 14.2083 14.7083 14.2083 15.1667V17.5H0.875ZM2.54167 15.8333H12.5417V15.1667C12.5417 15.0139 12.5035 14.875 12.4271 14.75C12.3507 14.625 12.25 14.5278 12.125 14.4583C11.625 14.2083 10.9826 13.9583 10.1979 13.7083C9.41319 13.4583 8.52778 13.3333 7.54167 13.3333C6.55556 13.3333 5.67014 13.4583 4.88542 13.7083C4.10069 13.9583 3.45833 14.2083 2.95833 14.4583C2.83333 14.5278 2.73264 14.625 2.65625 14.75C2.57986 14.875 2.54167 15.0139 2.54167 15.1667V15.8333ZM5.1875 9.85417C4.53472 9.20139 4.20833 8.41667 4.20833 7.5H4C3.875 7.5 3.77431 7.46181 3.69792 7.38542C3.62153 7.30903 3.58333 7.20833 3.58333 7.08333C3.58333 6.95833 3.62153 6.85764 3.69792 6.78125C3.77431 6.70486 3.875 6.66667 4 6.66667H4.20833C4.20833 6.04167 4.36111 5.47917 4.66667 4.97917C4.97222 4.47917 5.375 4.08333 5.875 3.79167V4.58333C5.875 4.70833 5.91319 4.80903 5.98958 4.88542C6.06597 4.96181 6.16667 5 6.29167 5C6.41667 5 6.51736 4.96181 6.59375 4.88542C6.67014 4.80903 6.70833 4.70833 6.70833 4.58333V3.45833C6.83333 3.41667 6.96528 3.38542 7.10417 3.36458C7.24306 3.34375 7.38889 3.33333 7.54167 3.33333C7.69444 3.33333 7.84028 3.34375 7.97917 3.36458C8.11806 3.38542 8.25 3.41667 8.375 3.45833V4.58333C8.375 4.70833 8.41319 4.80903 8.48958 4.88542C8.56597 4.96181 8.66667 5 8.79167 5C8.91667 5 9.01736 4.96181 9.09375 4.88542C9.17014 4.80903 9.20833 4.70833 9.20833 4.58333V3.79167C9.70833 4.08333 10.1111 4.47917 10.4167 4.97917C10.7222 5.47917 10.875 6.04167 10.875 6.66667H11.0833C11.2083 6.66667 11.309 6.70486 11.3854 6.78125C11.4618 6.85764 11.5 6.95833 11.5 7.08333C11.5 7.20833 11.4618 7.30903 11.3854 7.38542C11.309 7.46181 11.2083 7.5 11.0833 7.5H10.875C10.875 8.41667 10.5486 9.20139 9.89583 9.85417C9.24306 10.5069 8.45833 10.8333 7.54167 10.8333C6.625 10.8333 5.84028 10.5069 5.1875 9.85417ZM8.71875 8.67708C9.04514 8.35069 9.20833 7.95833 9.20833 7.5H5.875C5.875 7.95833 6.03819 8.35069 6.36458 8.67708C6.69097 9.00347 7.08333 9.16667 7.54167 9.16667C8 9.16667 8.39236 9.00347 8.71875 8.67708ZM13.7917 12.5L13.6667 11.875C13.5833 11.8472 13.5035 11.816 13.4271 11.7813C13.3507 11.7465 13.2778 11.6944 13.2083 11.625L12.625 11.8333L12.2083 11.0833L12.6667 10.6667V10.1667L12.2083 9.75L12.625 9L13.2083 9.20833C13.2639 9.15278 13.3333 9.10417 13.4167 9.0625C13.5 9.02083 13.5833 8.98611 13.6667 8.95833L13.7917 8.33333H14.625L14.75 8.95833C14.8333 8.98611 14.9167 9.02083 15 9.0625C15.0833 9.10417 15.1528 9.15278 15.2083 9.20833L15.7917 9L16.2083 9.75L15.75 10.1667V10.6667L16.2083 11.0833L15.7917 11.8333L15.2083 11.625C15.1389 11.6944 15.066 11.7465 14.9896 11.7813C14.9132 11.816 14.8333 11.8472 14.75 11.875L14.625 12.5H13.7917ZM14.6458 10.8542C14.7708 10.7292 14.8333 10.5833 14.8333 10.4167C14.8333 10.25 14.7708 10.1042 14.6458 9.97917C14.5208 9.85417 14.375 9.79167 14.2083 9.79167C14.0417 9.79167 13.8958 9.85417 13.7708 9.97917C13.6458 10.1042 13.5833 10.25 13.5833 10.4167C13.5833 10.5833 13.6458 10.7292 13.7708 10.8542C13.8958 10.9792 14.0417 11.0417 14.2083 11.0417C14.375 11.0417 14.5208 10.9792 14.6458 10.8542ZM15.7083 8.33333L15.5417 7.45833C15.4167 7.41667 15.3021 7.36458 15.1979 7.30208C15.0938 7.23958 15 7.16667 14.9167 7.08333L14.0417 7.375L13.4583 6.375L14.1667 5.75C14.1389 5.68056 14.125 5.625 14.125 5.58333V5.25C14.125 5.20833 14.1389 5.15278 14.1667 5.08333L13.4583 4.45833L14.0417 3.45833L14.9167 3.75C15 3.66667 15.0938 3.59375 15.1979 3.53125C15.3021 3.46875 15.4167 3.41667 15.5417 3.375L15.7083 2.5H16.875L17.0417 3.375C17.1667 3.41667 17.2813 3.46875 17.3854 3.53125C17.4896 3.59375 17.5833 3.66667 17.6667 3.75L18.5417 3.45833L19.125 4.45833L18.4167 5.08333C18.4444 5.15278 18.4583 5.20833 18.4583 5.25V5.58333C18.4583 5.625 18.4444 5.68056 18.4167 5.75L19.125 6.375L18.5417 7.375L17.6667 7.08333C17.5833 7.16667 17.4896 7.23958 17.3854 7.30208C17.2813 7.36458 17.1667 7.41667 17.0417 7.45833L16.875 8.33333H15.7083ZM17.0313 6.15625C17.2326 5.95486 17.3333 5.70833 17.3333 5.41667C17.3333 5.125 17.2326 4.87847 17.0313 4.67708C16.8299 4.47569 16.5833 4.375 16.2917 4.375C16 4.375 15.7535 4.47569 15.5521 4.67708C15.3507 4.87847 15.25 5.125 15.25 5.41667C15.25 5.70833 15.3507 5.95486 15.5521 6.15625C15.7535 6.35764 16 6.45833 16.2917 6.45833C16.5833 6.45833 16.8299 6.35764 17.0313 6.15625Z" fill="var(--fill-0, #1B1C1A)"/>
</g>
</svg>
