<svg width="5268" height="3252" viewBox="0 0 5268 3252" fill="none" xmlns="http://www.w3.org/2000/svg">
<g clip-path="url(#clip0_542_582)">
<path d="M3345.78 347.725H1921.56V2903.72H3345.78V347.725Z" fill="#FF5F00"/>
<path d="M2011.99 1625.72C2011.99 1128.98 2242.58 654.806 2631.41 347.725C1926.08 -207.73 904.265 -85.8012 348.142 623.195C-207.981 1327.68 -85.9053 2348.27 623.943 2903.72C1216.24 3368.86 2043.64 3368.86 2635.93 2903.72C2242.58 2596.64 2011.99 2122.47 2011.99 1625.72Z" fill="#EB001B"/>
<path d="M5267.34 1625.72C5267.34 2524.39 4539.41 3251.45 3639.67 3251.45C3273.44 3251.45 2920.78 3129.52 2635.93 2903.72C3341.26 2348.27 3463.34 1327.68 2907.21 618.679C2825.83 519.329 2735.4 424.495 2635.93 347.725C3341.26 -207.73 4367.6 -85.8012 4919.2 623.195C5145.27 907.697 5267.34 1259.94 5267.34 1625.72Z" fill="#F79E1B"/>
<path d="M5113.62 2632.77V2578.58H5136.23V2569.55H5081.97V2578.58H5104.58V2632.77H5113.62ZM5217.61 2632.77V2569.55H5199.52L5181.44 2614.71L5163.35 2569.55H5145.27V2632.77H5158.83V2583.09L5176.92 2623.74H5190.48L5208.57 2583.09V2632.77H5217.61Z" fill="#F79E1B"/>
</g>
<defs>
<clipPath id="clip0_542_582">
<rect width="5267.34" height="3251.45" fill="white"/>
</clipPath>
</defs>
</svg>
