<svg width="32" height="32" viewBox="0 0 32 32" fill="none" xmlns="http://www.w3.org/2000/svg">
<g clip-path="url(#clip0_542_616)">
<path d="M26.662 0H5.18837C2.39788 0 0.135742 2.26214 0.135742 5.05263V26.5263C0.135742 29.3168 2.39788 31.5789 5.18837 31.5789H26.662C29.4525 31.5789 31.7146 29.3168 31.7146 26.5263V5.05263C31.7146 2.26214 29.4525 0 26.662 0Z" fill="#FF5B24"/>
<path d="M16.2272 20.1339C19.0642 20.1339 20.6742 18.7559 22.2072 16.7654C23.0502 15.6937 24.1232 15.464 24.8902 16.0764C25.6572 16.6889 25.7332 17.8372 24.8902 18.909C22.6672 21.8181 19.8302 23.5788 16.2272 23.5788C12.3182 23.5788 8.86821 21.4353 6.49121 17.6841C5.80121 16.6889 5.95521 15.6171 6.72121 15.0812C7.48821 14.5453 8.63822 14.775 9.32822 15.8468C11.0142 18.3731 13.3142 20.1339 16.2272 20.1339ZM21.5172 10.7176C21.5172 12.0956 20.4442 13.0142 19.2172 13.0142C17.9912 13.0142 16.9172 12.0956 16.9172 10.7176C16.9172 9.33956 17.9912 8.4209 19.2172 8.4209C20.4442 8.4209 21.5172 9.41612 21.5172 10.7176Z" fill="white"/>
</g>
<defs>
<clipPath id="clip0_542_616">
<rect width="32" height="32" fill="white"/>
</clipPath>
</defs>
</svg>
