<svg width="5268" height="1704" viewBox="0 0 5268 1704" fill="none" xmlns="http://www.w3.org/2000/svg">
<g clip-path="url(#clip0_542_580)">
<path d="M3431.91 0C3058.39 0 2723.03 194.355 2723.03 551.006C2723.03 961.755 3315.44 989.806 3315.44 1194.18C3315.44 1280.34 3215.03 1358.48 3046.34 1358.48C2805.37 1358.48 2624.64 1250.28 2624.64 1250.28L2548.33 1610.94C2548.33 1610.94 2755.16 1703.11 3032.29 1703.11C3441.95 1703.11 3763.25 1500.74 3763.25 1136.07C3763.25 703.283 3168.84 675.232 3168.84 484.885C3168.84 416.761 3251.17 342.625 3419.86 342.625C3610.63 342.625 3767.27 420.768 3767.27 420.768L3843.58 72.1316C3841.57 72.1316 3670.88 0 3431.91 0ZM10.0407 26.0475L0 78.1426C0 78.1426 156.635 106.194 299.212 164.3C481.953 230.42 494.002 268.49 526.132 386.706L861.491 1675.06H1311.31L2000.1 26.0475H1552.29L1108.49 1148.1L927.76 196.358C911.694 88.1609 827.353 26.0475 722.93 26.0475H10.0407ZM2180.84 26.0475L1829.41 1675.06H2257.15L2606.56 26.0475H2180.84ZM4562.49 26.0475C4460.07 26.0475 4405.85 80.1463 4365.69 176.322L3739.15 1675.06H4186.97L4273.32 1424.6H4819.53L4871.74 1675.06H5267.34L4923.95 26.0475H4562.49ZM4620.72 472.863L4753.26 1091.99H4397.82L4620.72 472.863Z" fill="#1434CB"/>
</g>
<defs>
<clipPath id="clip0_542_580">
<rect width="5267.34" height="1703.11" fill="white"/>
</clipPath>
</defs>
</svg>
