<svg preserveAspectRatio="none" width="100%" height="100%" overflow="visible" style="display: block;" viewBox="0 0 612 251" fill="none" xmlns="http://www.w3.org/2000/svg">
<g id="NKI-Privatist_Logo_Black_S 1" clip-path="url(#clip0_0_184)">
<path id="Vector" d="M590.793 0H539.574C527.931 0 518.492 9.44156 518.492 21.0883V229.963C518.492 241.61 527.931 251.051 539.574 251.051H590.793C602.436 251.051 611.875 241.61 611.875 229.963V21.0883C611.875 9.44156 602.436 0 590.793 0Z" fill="var(--fill-0, #EBFFBB)"/>
<path id="Vector_2" d="M108.23 161.476V142.496C108.23 138.71 105.158 135.638 101.373 135.638C97.5887 135.638 94.5168 138.71 94.5168 142.496V229.963C94.5168 241.611 85.0802 251.051 73.435 251.051H21.0818C9.43662 251.051 0 241.611 0 229.963V30.4771C0 14.1789 13.2113 0.953506 29.5145 0.953506H61.6292C110.88 0.953506 151.177 41.2623 151.177 90.5286V109.508C151.177 113.294 154.249 116.367 158.033 116.367C161.818 116.367 164.89 113.294 164.89 109.508V22.0418C164.89 10.393 174.326 0.953506 185.972 0.953506H237.291C248.936 0.953506 258.373 10.393 258.373 22.0418V221.527C258.373 237.836 245.161 251.051 228.858 251.051H197.798C148.546 251.051 108.25 210.742 108.25 161.476H108.23Z" fill="var(--fill-0, #EBFFBB)"/>
<path id="Vector_3" d="M405.253 229.963V192.265C405.253 179.472 394.882 169.108 382.103 169.108C379.192 169.108 376.832 171.468 376.832 174.38V229.963C376.832 241.612 367.396 251.051 355.751 251.051H304.291C292.646 251.051 283.209 241.612 283.209 229.963V21.0883C283.209 9.43953 292.646 0 304.291 0H355.751C367.396 0 376.832 9.43953 376.832 21.0883V76.6711C376.832 79.5833 379.192 81.9432 382.103 81.9432C394.882 81.9432 405.253 71.5798 405.253 58.7962C405.253 46.9466 405.253 32.6266 405.253 21.0883C405.253 9.42949 414.689 0 426.335 0H477.804C489.449 0 498.886 9.43953 498.886 21.0883V37.9288C498.886 83.3892 462.043 120.254 416.597 120.254C413.685 120.254 411.326 122.614 411.326 125.526C411.326 128.438 413.685 130.798 416.597 130.798C462.043 130.798 498.886 167.652 498.886 213.113V229.963C498.886 241.612 489.449 251.051 477.804 251.051H426.335C414.689 251.051 405.253 241.612 405.253 229.963Z" fill="var(--fill-0, #EBFFBB)"/>
</g>
<defs>
<clipPath id="clip0_0_184">
<rect width="612" height="251" fill="white"/>
</clipPath>
</defs>
</svg>
