<svg preserveAspectRatio="none" width="100%" height="100%" overflow="visible" style="display: block;" viewBox="0 0 16 16" fill="none" xmlns="http://www.w3.org/2000/svg">
<g id="Text">
<mask id="mask0_0_106" style="mask-type:alpha" maskUnits="userSpaceOnUse" x="0" y="0" width="16" height="16">
<rect id="Bounding box" width="16" height="16" fill="var(--fill-0, #D9D9D9)"/>
</mask>
<g mask="url(#mask0_0_106)">
<path id="two_pager" d="M2.66667 13.3333C2.3 13.3333 1.98611 13.2028 1.725 12.9417C1.46389 12.6806 1.33333 12.3667 1.33333 12V4C1.33333 3.63333 1.46389 3.31944 1.725 3.05833C1.98611 2.79722 2.3 2.66667 2.66667 2.66667H13.3333C13.7 2.66667 14.0139 2.79722 14.275 3.05833C14.5361 3.31944 14.6667 3.63333 14.6667 4V12C14.6667 12.3667 14.5361 12.6806 14.275 12.9417C14.0139 13.2028 13.7 13.3333 13.3333 13.3333H2.66667ZM2.66667 12H7.33333V4H2.66667V12ZM8.66667 12H13.3333V4H8.66667V12ZM3.33333 10.6667H6.66667V9.33333H3.33333V10.6667ZM3.33333 8.66667H6.66667V7.33333H3.33333V8.66667ZM3.33333 6.66667H6.66667V5.33333H3.33333V6.66667ZM9.33333 10.6667H12.6667V9.33333H9.33333V10.6667ZM9.33333 8.66667H12.6667V7.33333H9.33333V8.66667ZM9.33333 6.66667H12.6667V5.33333H9.33333V6.66667Z" fill="var(--fill-0, #1B1C1A)"/>
</g>
</g>
</svg>
