<svg preserveAspectRatio="none" width="100%" height="100%" overflow="visible" style="display: block;" viewBox="0 0 16 16" fill="none" xmlns="http://www.w3.org/2000/svg">
<g id="Audios">
<mask id="mask0_0_82" style="mask-type:alpha" maskUnits="userSpaceOnUse" x="0" y="0" width="16" height="16">
<rect id="Bounding box" width="16" height="16" fill="var(--fill-0, #D9D9D9)"/>
</mask>
<g mask="url(#mask0_0_82)">
<path id="mic" d="M6.58333 8.75C6.19444 8.36111 6 7.88889 6 7.33333V3.33333C6 2.77778 6.19444 2.30556 6.58333 1.91667C6.97222 1.52778 7.44444 1.33333 8 1.33333C8.55556 1.33333 9.02778 1.52778 9.41667 1.91667C9.80556 2.30556 10 2.77778 10 3.33333V7.33333C10 7.88889 9.80556 8.36111 9.41667 8.75C9.02778 9.13889 8.55556 9.33333 8 9.33333C7.44444 9.33333 6.97222 9.13889 6.58333 8.75ZM7.33333 14V11.95C6.17778 11.7944 5.22222 11.2778 4.46667 10.4C3.71111 9.52222 3.33333 8.5 3.33333 7.33333H4.66667C4.66667 8.25556 4.99167 9.04167 5.64167 9.69167C6.29167 10.3417 7.07778 10.6667 8 10.6667C8.92222 10.6667 9.70833 10.3417 10.3583 9.69167C11.0083 9.04167 11.3333 8.25556 11.3333 7.33333H12.6667C12.6667 8.5 12.2889 9.52222 11.5333 10.4C10.7778 11.2778 9.82222 11.7944 8.66667 11.95V14H7.33333ZM8.475 7.80833C8.60278 7.68056 8.66667 7.52222 8.66667 7.33333V3.33333C8.66667 3.14444 8.60278 2.98611 8.475 2.85833C8.34722 2.73056 8.18889 2.66667 8 2.66667C7.81111 2.66667 7.65278 2.73056 7.525 2.85833C7.39722 2.98611 7.33333 3.14444 7.33333 3.33333V7.33333C7.33333 7.52222 7.39722 7.68056 7.525 7.80833C7.65278 7.93611 7.81111 8 8 8C8.18889 8 8.34722 7.93611 8.475 7.80833Z" fill="var(--fill-0, #1B1C1A)"/>
</g>
</g>
</svg>
