<svg preserveAspectRatio="none" width="100%" height="100%" overflow="visible" style="display: block;" viewBox="0 0 16 16" fill="none" xmlns="http://www.w3.org/2000/svg">
<g id="Games">
<mask id="mask0_0_100" style="mask-type:alpha" maskUnits="userSpaceOnUse" x="0" y="0" width="16" height="16">
<rect id="Bounding box" width="16" height="16" fill="var(--fill-0, #D9D9D9)"/>
</mask>
<g mask="url(#mask0_0_100)">
<path id="toys_and_games" d="M2 11.4667C2 11.2889 2.05833 11.1389 2.175 11.0167C2.29167 10.8944 2.43333 10.8333 2.6 10.8333C2.68889 10.8333 2.775 10.8472 2.85833 10.875C2.94167 10.9028 3.02222 10.9444 3.1 11C3.24444 11.0889 3.38889 11.1667 3.53333 11.2333C3.67778 11.3 3.83333 11.3333 4 11.3333C4.36667 11.3333 4.68056 11.2028 4.94167 10.9417C5.20278 10.6806 5.33333 10.3667 5.33333 10C5.33333 9.63333 5.20278 9.31944 4.94167 9.05833C4.68056 8.79722 4.36667 8.66667 4 8.66667C3.83333 8.66667 3.67222 8.69444 3.51667 8.75C3.36111 8.80556 3.22222 8.88889 3.1 9C3.03333 9.05556 2.95556 9.09722 2.86667 9.125C2.77778 9.15278 2.68889 9.16667 2.6 9.16667C2.43333 9.16667 2.29167 9.10556 2.175 8.98333C2.05833 8.86111 2 8.71111 2 8.53333V6C2 5.81111 2.06389 5.65278 2.19167 5.525C2.31944 5.39722 2.47778 5.33333 2.66667 5.33333H5.16667C5.11111 5.16667 5.06944 5 5.04167 4.83333C5.01389 4.66667 5 4.5 5 4.33333C5 3.5 5.29167 2.79167 5.875 2.20833C6.45833 1.625 7.16667 1.33333 8 1.33333C8.83333 1.33333 9.54167 1.625 10.125 2.20833C10.7083 2.79167 11 3.5 11 4.33333C11 4.5 10.9861 4.66667 10.9583 4.83333C10.9306 5 10.8889 5.16667 10.8333 5.33333H13.3333C13.5222 5.33333 13.6806 5.39722 13.8083 5.525C13.9361 5.65278 14 5.81111 14 6V8.53333C14 8.72222 13.9361 8.88056 13.8083 9.00833C13.6806 9.13611 13.5222 9.2 13.3333 9.2C13.2444 9.2 13.1667 9.18056 13.1 9.14167C13.0333 9.10278 12.9667 9.05556 12.9 9C12.7778 8.88889 12.6389 8.80556 12.4833 8.75C12.3278 8.69444 12.1667 8.66667 12 8.66667C11.6333 8.66667 11.3194 8.79722 11.0583 9.05833C10.7972 9.31944 10.6667 9.63333 10.6667 10C10.6667 10.3667 10.7972 10.6806 11.0583 10.9417C11.3194 11.2028 11.6333 11.3333 12 11.3333C12.1667 11.3333 12.3278 11.3056 12.4833 11.25C12.6389 11.1944 12.7778 11.1111 12.9 11C12.9556 10.9444 13.0194 10.8972 13.0917 10.8583C13.1639 10.8194 13.2444 10.8 13.3333 10.8C13.5222 10.8 13.6806 10.8639 13.8083 10.9917C13.9361 11.1194 14 11.2778 14 11.4667V14C14 14.1889 13.9361 14.3472 13.8083 14.475C13.6806 14.6028 13.5222 14.6667 13.3333 14.6667H2.66667C2.47778 14.6667 2.31944 14.6028 2.19167 14.475C2.06389 14.3472 2 14.1889 2 14V11.4667ZM3.33333 13.3333H12.6667V12.5667C12.5556 12.6 12.4472 12.625 12.3417 12.6417C12.2361 12.6583 12.1222 12.6667 12 12.6667C11.2667 12.6667 10.6389 12.4056 10.1167 11.8833C9.59444 11.3611 9.33333 10.7333 9.33333 10C9.33333 9.26667 9.59444 8.63889 10.1167 8.11667C10.6389 7.59444 11.2667 7.33333 12 7.33333C12.1222 7.33333 12.2361 7.34167 12.3417 7.35833C12.4472 7.375 12.5556 7.4 12.6667 7.43333V6.66667H9.63333C9.44444 6.66667 9.28611 6.60556 9.15833 6.48333C9.03056 6.36111 8.96667 6.21111 8.96667 6.03333C8.96667 5.94444 8.98056 5.85278 9.00833 5.75833C9.03611 5.66389 9.08889 5.58889 9.16667 5.53333C9.35556 5.4 9.48611 5.225 9.55833 5.00833C9.63056 4.79167 9.66667 4.56667 9.66667 4.33333C9.66667 3.86667 9.50556 3.47222 9.18333 3.15C8.86111 2.82778 8.46667 2.66667 8 2.66667C7.53333 2.66667 7.13889 2.82778 6.81667 3.15C6.49444 3.47222 6.33333 3.86667 6.33333 4.33333C6.33333 4.56667 6.36944 4.79167 6.44167 5.00833C6.51389 5.225 6.64444 5.4 6.83333 5.53333C6.91111 5.58889 6.96389 5.65833 6.99167 5.74167C7.01944 5.825 7.03333 5.91111 7.03333 6C7.03333 6.18889 6.96944 6.34722 6.84167 6.475C6.71389 6.60278 6.55556 6.66667 6.36667 6.66667H3.33333V7.43333C3.44444 7.4 3.55278 7.375 3.65833 7.35833C3.76389 7.34167 3.87778 7.33333 4 7.33333C4.73333 7.33333 5.36111 7.59444 5.88333 8.11667C6.40556 8.63889 6.66667 9.26667 6.66667 10C6.66667 10.7333 6.40556 11.3611 5.88333 11.8833C5.36111 12.4056 4.73333 12.6667 4 12.6667C3.87778 12.6667 3.76389 12.6583 3.65833 12.6417C3.55278 12.625 3.44444 12.6 3.33333 12.5667V13.3333Z" fill="var(--fill-0, #1B1C1A)"/>
</g>
</g>
</svg>
