<svg preserveAspectRatio="none" width="100%" height="100%" overflow="visible" style="display: block;" viewBox="0 0 16 16" fill="none" xmlns="http://www.w3.org/2000/svg">
<g id="Quizzes">
<mask id="mask0_0_88" style="mask-type:alpha" maskUnits="userSpaceOnUse" x="0" y="0" width="16" height="16">
<rect id="Bounding box" width="16" height="16" fill="var(--fill-0, #D9D9D9)"/>
</mask>
<g mask="url(#mask0_0_88)">
<path id="quiz" d="M9.825 9.79167C9.96389 9.65278 10.0333 9.48889 10.0333 9.3C10.0333 9.11111 9.96389 8.94722 9.825 8.80833C9.68611 8.66944 9.52222 8.6 9.33333 8.6C9.14444 8.6 8.98056 8.66944 8.84167 8.80833C8.70278 8.94722 8.63333 9.11111 8.63333 9.3C8.63333 9.48889 8.70278 9.65278 8.84167 9.79167C8.98056 9.93056 9.14444 10 9.33333 10C9.52222 10 9.68611 9.93056 9.825 9.79167ZM8.83333 7.86667H9.83333C9.83333 7.54444 9.86667 7.30833 9.93333 7.15833C10 7.00833 10.1556 6.81111 10.4 6.56667C10.7333 6.23333 10.9556 5.96389 11.0667 5.75833C11.1778 5.55278 11.2333 5.31111 11.2333 5.03333C11.2333 4.53333 11.0583 4.125 10.7083 3.80833C10.3583 3.49167 9.9 3.33333 9.33333 3.33333C8.87778 3.33333 8.48056 3.46111 8.14167 3.71667C7.80278 3.97222 7.56667 4.31111 7.43333 4.73333L8.33333 5.1C8.43333 4.82222 8.56944 4.61389 8.74167 4.475C8.91389 4.33611 9.11111 4.26667 9.33333 4.26667C9.6 4.26667 9.81667 4.34167 9.98333 4.49167C10.15 4.64167 10.2333 4.84444 10.2333 5.1C10.2333 5.25556 10.1889 5.40278 10.1 5.54167C10.0111 5.68056 9.85555 5.85556 9.63333 6.06667C9.26667 6.38889 9.04167 6.64167 8.95833 6.825C8.875 7.00833 8.83333 7.35556 8.83333 7.86667ZM5.33333 12C4.96667 12 4.65278 11.8694 4.39167 11.6083C4.13056 11.3472 4 11.0333 4 10.6667V2.66667C4 2.3 4.13056 1.98611 4.39167 1.725C4.65278 1.46389 4.96667 1.33333 5.33333 1.33333H13.3333C13.7 1.33333 14.0139 1.46389 14.275 1.725C14.5361 1.98611 14.6667 2.3 14.6667 2.66667V10.6667C14.6667 11.0333 14.5361 11.3472 14.275 11.6083C14.0139 11.8694 13.7 12 13.3333 12H5.33333ZM5.33333 10.6667H13.3333V2.66667H5.33333V10.6667ZM2.66667 14.6667C2.3 14.6667 1.98611 14.5361 1.725 14.275C1.46389 14.0139 1.33333 13.7 1.33333 13.3333V4H2.66667V13.3333H12V14.6667H2.66667Z" fill="var(--fill-0, #1B1C1A)"/>
</g>
</g>
</svg>
