<svg preserveAspectRatio="none" width="100%" height="100%" overflow="visible" style="display: block;" viewBox="0 0 20 20" fill="none" xmlns="http://www.w3.org/2000/svg">
<g id="Email Icon">
<mask id="mask0_0_110" style="mask-type:alpha" maskUnits="userSpaceOnUse" x="0" y="0" width="20" height="20">
<rect id="Bounding box" width="20" height="20" fill="var(--fill-0, #D9D9D9)"/>
</mask>
<g mask="url(#mask0_0_110)">
<path id="mail" d="M3.33329 16.6665C2.87496 16.6665 2.4826 16.5033 2.15621 16.1769C1.82982 15.8505 1.66663 15.4581 1.66663 14.9998V4.9998C1.66663 4.54146 1.82982 4.1491 2.15621 3.82271C2.4826 3.49632 2.87496 3.33313 3.33329 3.33313H16.6666C17.125 3.33313 17.5173 3.49632 17.8437 3.82271C18.1701 4.1491 18.3333 4.54146 18.3333 4.9998V14.9998C18.3333 15.4581 18.1701 15.8505 17.8437 16.1769C17.5173 16.5033 17.125 16.6665 16.6666 16.6665H3.33329ZM9.99996 10.8331L3.33329 6.66646V14.9998H16.6666V6.66646L9.99996 10.8331ZM9.99996 9.16646L16.6666 4.9998H3.33329L9.99996 9.16646ZM3.33329 6.66646V4.9998V14.9998V6.66646Z" fill="var(--fill-0, #9E9E9E)"/>
</g>
</g>
</svg>
