<svg preserveAspectRatio="none" width="100%" height="100%" overflow="visible" style="display: block;" viewBox="0 0 16 16" fill="none" xmlns="http://www.w3.org/2000/svg">
<g id="Calendar icon">
<mask id="mask0_0_83" style="mask-type:alpha" maskUnits="userSpaceOnUse" x="0" y="0" width="16" height="16">
<rect id="Bounding box" width="16" height="16" fill="var(--fill-0, #D9D9D9)"/>
</mask>
<g mask="url(#mask0_0_83)">
<path id="calendar_today" d="M3.33333 14.6667C2.96667 14.6667 2.65278 14.5361 2.39167 14.275C2.13056 14.0139 2 13.7 2 13.3333V4C2 3.63333 2.13056 3.31944 2.39167 3.05833C2.65278 2.79722 2.96667 2.66667 3.33333 2.66667H4V1.33333H5.33333V2.66667H10.6667V1.33333H12V2.66667H12.6667C13.0333 2.66667 13.3472 2.79722 13.6083 3.05833C13.8694 3.31944 14 3.63333 14 4V13.3333C14 13.7 13.8694 14.0139 13.6083 14.275C13.3472 14.5361 13.0333 14.6667 12.6667 14.6667H3.33333ZM3.33333 13.3333H12.6667V6.66667H3.33333V13.3333ZM3.33333 5.33333H12.6667V4H3.33333V5.33333Z" fill="var(--fill-0, #6B7280)"/>
</g>
</g>
</svg>
