<svg preserveAspectRatio="none" width="100%" height="100%" overflow="visible" style="display: block;" viewBox="0 0 16 16" fill="none" xmlns="http://www.w3.org/2000/svg">
<g id="Eye icon">
<mask id="mask0_0_72" style="mask-type:alpha" maskUnits="userSpaceOnUse" x="0" y="0" width="16" height="16">
<rect id="Bounding box" width="16" height="16" fill="var(--fill-0, #D9D9D9)"/>
</mask>
<g mask="url(#mask0_0_72)">
<path id="visibility" d="M10.125 9.79166C10.7084 9.20833 11 8.5 11 7.66666C11 6.83333 10.7084 6.125 10.125 5.54166C9.54169 4.95833 8.83335 4.66666 8.00002 4.66666C7.16669 4.66666 6.45835 4.95833 5.87502 5.54166C5.29169 6.125 5.00002 6.83333 5.00002 7.66666C5.00002 8.5 5.29169 9.20833 5.87502 9.79166C6.45835 10.375 7.16669 10.6667 8.00002 10.6667C8.83335 10.6667 9.54169 10.375 10.125 9.79166ZM6.72502 8.94166C6.37502 8.59166 6.20002 8.16666 6.20002 7.66666C6.20002 7.16666 6.37502 6.74166 6.72502 6.39166C7.07502 6.04166 7.50002 5.86666 8.00002 5.86666C8.50002 5.86666 8.92502 6.04166 9.27502 6.39166C9.62502 6.74166 9.80002 7.16666 9.80002 7.66666C9.80002 8.16666 9.62502 8.59166 9.27502 8.94166C8.92502 9.29166 8.50002 9.46666 8.00002 9.46666C7.50002 9.46666 7.07502 9.29166 6.72502 8.94166ZM3.56669 11.3083C2.23335 10.4028 1.26669 9.18889 0.666687 7.66666C1.26669 6.14444 2.23335 4.93055 3.56669 4.025C4.90002 3.11944 6.3778 2.66666 8.00002 2.66666C9.62224 2.66666 11.1 3.11944 12.4334 4.025C13.7667 4.93055 14.7334 6.14444 15.3334 7.66666C14.7334 9.18889 13.7667 10.4028 12.4334 11.3083C11.1 12.2139 9.62224 12.6667 8.00002 12.6667C6.3778 12.6667 4.90002 12.2139 3.56669 11.3083ZM11.4584 10.3417C12.5084 9.68055 13.3111 8.78889 13.8667 7.66666C13.3111 6.54444 12.5084 5.65278 11.4584 4.99166C10.4084 4.33055 9.25558 4 8.00002 4C6.74446 4 5.59169 4.33055 4.54169 4.99166C3.49169 5.65278 2.68891 6.54444 2.13335 7.66666C2.68891 8.78889 3.49169 9.68055 4.54169 10.3417C5.59169 11.0028 6.74446 11.3333 8.00002 11.3333C9.25558 11.3333 10.4084 11.0028 11.4584 10.3417Z" fill="var(--fill-0, #6B7280)"/>
</g>
</g>
</svg>
