<svg preserveAspectRatio="none" width="100%" height="100%" overflow="visible" style="display: block;" viewBox="0 0 16 16" fill="none" xmlns="http://www.w3.org/2000/svg">
<g id="Clock icon">
<path id="Vector" d="M10.2 11.1333L11.1333 10.2L8.66667 7.73333V4.66667H7.33333V8.26667L10.2 11.1333ZM8 14.6667C7.07778 14.6667 6.21111 14.4917 5.4 14.1417C4.58889 13.7917 3.88333 13.3167 3.28333 12.7167C2.68333 12.1167 2.20833 11.4111 1.85833 10.6C1.50833 9.78889 1.33333 8.92222 1.33333 8C1.33333 7.07778 1.50833 6.21111 1.85833 5.4C2.20833 4.58889 2.68333 3.88333 3.28333 3.28333C3.88333 2.68333 4.58889 2.20833 5.4 1.85833C6.21111 1.50833 7.07778 1.33333 8 1.33333C8.92222 1.33333 9.78889 1.50833 10.6 1.85833C11.4111 2.20833 12.1167 2.68333 12.7167 3.28333C13.3167 3.88333 13.7917 4.58889 14.1417 5.4C14.4917 6.21111 14.6667 7.07778 14.6667 8C14.6667 8.92222 14.4917 9.78889 14.1417 10.6C13.7917 11.4111 13.3167 12.1167 12.7167 12.7167C12.1167 13.3167 11.4111 13.7917 10.6 14.1417C9.78889 14.4917 8.92222 14.6667 8 14.6667ZM8 13.3333C9.47778 13.3333 10.7361 12.8139 11.775 11.775C12.8139 10.7361 13.3333 9.47778 13.3333 8C13.3333 6.52222 12.8139 5.26389 11.775 4.225C10.7361 3.18611 9.47778 2.66667 8 2.66667C6.52222 2.66667 5.26389 3.18611 4.225 4.225C3.18611 5.26389 2.66667 6.52222 2.66667 8C2.66667 9.47778 3.18611 10.7361 4.225 11.775C5.26389 12.8139 6.52222 13.3333 8 13.3333Z" fill="var(--fill-0, #6B7280)"/>
</g>
</svg>
