<svg preserveAspectRatio="none" width="100%" height="100%" overflow="visible" style="display: block;" viewBox="0 0 24 24" fill="none" xmlns="http://www.w3.org/2000/svg">
<g id="rocket">
<path id="Vector" d="M5.65 10.025L7.6 10.85C7.83333 10.3833 8.075 9.93333 8.325 9.5C8.575 9.06667 8.85 8.63333 9.15 8.2L7.75 7.925L5.65 10.025ZM9.2 12.1L12.05 14.925C12.75 14.6583 13.5 14.25 14.3 13.7C15.1 13.15 15.85 12.525 16.55 11.825C17.7167 10.6583 18.6292 9.3625 19.2875 7.9375C19.9458 6.5125 20.2333 5.2 20.15 4C18.95 3.91667 17.6333 4.20417 16.2 4.8625C14.7667 5.52083 13.4667 6.43333 12.3 7.6C11.6 8.3 10.975 9.05 10.425 9.85C9.875 10.65 9.46667 11.4 9.2 12.1ZM13.075 9.0625C13.075 8.50417 13.2667 8.03333 13.65 7.65C14.0333 7.26667 14.5083 7.075 15.075 7.075C15.6417 7.075 16.1167 7.26667 16.5 7.65C16.8833 8.03333 17.075 8.50417 17.075 9.0625C17.075 9.62083 16.8833 10.0917 16.5 10.475C16.1167 10.8583 15.6417 11.05 15.075 11.05C14.5083 11.05 14.0333 10.8583 13.65 10.475C13.2667 10.0917 13.075 9.62083 13.075 9.0625ZM14.125 18.5L16.225 16.4L15.95 15C15.5167 15.3 15.0833 15.5708 14.65 15.8125C14.2167 16.0542 13.7667 16.2917 13.3 16.525L14.125 18.5ZM21.95 2.175C22.2667 4.19167 22.0708 6.15417 21.3625 8.0625C20.6542 9.97083 19.4333 11.7917 17.7 13.525L18.2 16C18.2667 16.3333 18.25 16.6583 18.15 16.975C18.05 17.2917 17.8833 17.5667 17.65 17.8L13.45 22L11.35 17.075L7.075 12.8L2.15 10.7L6.325 6.5C6.55833 6.26667 6.8375 6.1 7.1625 6C7.4875 5.9 7.81667 5.88333 8.15 5.95L10.625 6.45C12.3583 4.71667 14.175 3.49167 16.075 2.775C17.975 2.05833 19.9333 1.85833 21.95 2.175ZM3.925 15.975C4.50833 15.3917 5.22083 15.0958 6.0625 15.0875C6.90417 15.0792 7.61667 15.3667 8.2 15.95C8.78333 16.5333 9.07083 17.2458 9.0625 18.0875C9.05417 18.9292 8.75833 19.6417 8.175 20.225C7.75833 20.6417 7.0625 21 6.0875 21.3C5.1125 21.6 3.76667 21.8667 2.05 22.1C2.28333 20.3833 2.55 19.0375 2.85 18.0625C3.15 17.0875 3.50833 16.3917 3.925 15.975ZM5.35 17.375C5.18333 17.5417 5.01667 17.8458 4.85 18.2875C4.68333 18.7292 4.56667 19.175 4.5 19.625C4.95 19.5583 5.39583 19.4458 5.8375 19.2875C6.27917 19.1292 6.58333 18.9667 6.75 18.8C6.95 18.6 7.05833 18.3583 7.075 18.075C7.09167 17.7917 7 17.55 6.8 17.35C6.6 17.15 6.35833 17.0542 6.075 17.0625C5.79167 17.0708 5.55 17.175 5.35 17.375Z" fill="var(--fill-0, #1B1C1A)"/>
</g>
</svg>
