<?xml version="1.0" encoding="UTF-8"?><svg id="Layer_1" xmlns="http://www.w3.org/2000/svg" viewBox="0 0 584.7 250"><defs><style>.cls-1{fill:#fffef3;}</style></defs><rect class="cls-1" x="491.68" y="0" width="93.02" height="250" rx="21" ry="21"/><path class="cls-1" d="M104.66,166.01v-25.68c0-2.9-2.35-5.25-5.25-5.25h0c-2.9,0-5.25,2.35-5.25,5.25v88.68c0,11.6-9.4,21-21,21H21c-11.6,0-21-9.4-21-21V30.35C0,14.12,13.16.95,29.4.95h34.04c46.39,0,83.99,37.61,83.99,83.99v25.68c0,2.9,2.35,5.25,5.25,5.25h0c2.9,0,5.25-2.35,5.25-5.25V21.95c0-11.6,9.4-21,21-21h51.12c11.6,0,21,9.4,21,21v198.65c0,16.24-13.16,29.4-29.4,29.4h-32.99c-46.39,0-83.99-37.61-83.99-83.99Z"/><path class="cls-1" d="M387.96,229v-37.54c0-12.74-10.33-23.06-23.06-23.06h0c-2.9,0-5.25,2.35-5.25,5.25v55.35c0,11.6-9.4,21-21,21h-51.26c-11.6,0-21-9.4-21-21V21c0-11.6,9.4-21,21-21h51.26c11.6,0,21,9.4,21,21v55.35c0,2.9,2.35,5.25,5.25,5.25h0c12.73,0,23.06-10.32,23.06-23.05,0-11.8,0-26.06,0-37.55C387.96,9.39,397.36,0,408.96,0h51.27c11.6,0,21,9.4,21,21v16.77c0,45.85-37.17,83.03-83.02,83.03h0c-2.32,0-4.2,1.88-4.2,4.2h0c0,2.32,1.88,4.2,4.2,4.2h0c45.85,0,83.02,37.17,83.02,83.02v16.78c0,11.6-9.4,21-21,21h-51.27c-11.6,0-21-9.4-21-21Z"/></svg>