<svg preserveAspectRatio="none" width="100%" height="100%" overflow="visible" style="display: block;" viewBox="0 0 16 16" fill="none" xmlns="http://www.w3.org/2000/svg">
<g id="Tag Icon">
<path id="Vector" d="M7 10.3333H9V8.66667H10.6667V6.66667H9V5H7V6.66667H5.33333V8.66667H7V10.3333ZM8 14.6667C6.45556 14.2778 5.18056 13.3917 4.175 12.0083C3.16945 10.625 2.66667 9.08889 2.66667 7.4V3.33333L8 1.33333L13.3333 3.33333V7.4C13.3333 9.08889 12.8306 10.625 11.825 12.0083C10.8194 13.3917 9.54445 14.2778 8 14.6667ZM8 13.2667C9.15556 12.9 10.1111 12.1667 10.8667 11.0667C11.6222 9.96667 12 8.74444 12 7.4V4.25L8 2.75L4 4.25V7.4C4 8.74444 4.37778 9.96667 5.13333 11.0667C5.88889 12.1667 6.84445 12.9 8 13.2667Z" fill="var(--fill-0, #1B1C1A)"/>
</g>
</svg>
