<svg preserveAspectRatio="none" width="100%" height="100%" overflow="visible" style="display: block;" viewBox="0 0 16 16" fill="none" xmlns="http://www.w3.org/2000/svg">
<g id="Tag Icon">
<path id="Vector" d="M6.85 8C6.53889 8 6.28333 7.88333 6.08333 7.65C5.88333 7.41667 5.81111 7.14444 5.86667 6.83333L6.06667 5.63333C6.15556 5.15556 6.38056 4.76389 6.74167 4.45833C7.10278 4.15278 7.52222 4 8 4C8.48889 4 8.91389 4.15278 9.275 4.45833C9.63611 4.76389 9.86111 5.15556 9.95 5.63333L10.15 6.83333C10.2056 7.14444 10.1333 7.41667 9.93333 7.65C9.73333 7.88333 9.47778 8 9.16667 8H6.85ZM7.25 6.66667H8.76667L8.63333 5.85C8.61111 5.69444 8.53889 5.56944 8.41667 5.475C8.29444 5.38056 8.15556 5.33333 8 5.33333C7.84444 5.33333 7.70833 5.38056 7.59167 5.475C7.475 5.56944 7.40556 5.69444 7.38333 5.85L7.25 6.66667ZM2.06667 8.65C1.81111 8.66111 1.59167 8.61111 1.40833 8.5C1.225 8.38889 1.10556 8.21667 1.05 7.98333C1.02778 7.88333 1.02222 7.78333 1.03333 7.68333C1.04444 7.58333 1.07222 7.48889 1.11667 7.4C1.11667 7.41111 1.11111 7.38889 1.1 7.33333C1.07778 7.31111 1.02222 7.17778 0.933333 6.93333C0.911111 6.8 0.927778 6.67222 0.983333 6.55C1.03889 6.42778 1.11111 6.32222 1.2 6.23333L1.23333 6.2C1.25556 5.98889 1.34167 5.81111 1.49167 5.66667C1.64167 5.52222 1.82778 5.45 2.05 5.45C2.08333 5.45 2.18889 5.47222 2.36667 5.51667L2.41667 5.5C2.47222 5.44444 2.54444 5.40278 2.63333 5.375C2.72222 5.34722 2.81667 5.33333 2.91667 5.33333C3.03889 5.33333 3.14722 5.35278 3.24167 5.39167C3.33611 5.43056 3.41111 5.48889 3.46667 5.56667C3.47778 5.56667 3.48611 5.56944 3.49167 5.575C3.49722 5.58056 3.50556 5.58333 3.51667 5.58333C3.67222 5.59444 3.80833 5.64167 3.925 5.725C4.04167 5.80833 4.12778 5.92222 4.18333 6.06667C4.20556 6.14444 4.21389 6.21944 4.20833 6.29167C4.20278 6.36389 4.18889 6.43333 4.16667 6.5C4.16667 6.51111 4.17222 6.53333 4.18333 6.56667C4.26111 6.64444 4.32222 6.73056 4.36667 6.825C4.41111 6.91944 4.43333 7.01667 4.43333 7.11667C4.43333 7.16111 4.4 7.27778 4.33333 7.46667C4.32222 7.48889 4.32222 7.51111 4.33333 7.53333L4.36667 7.8C4.36667 8.03333 4.26944 8.23333 4.075 8.4C3.88056 8.56667 3.64444 8.65 3.36667 8.65H2.06667ZM13.3333 8.66667C12.9667 8.66667 12.6528 8.53611 12.3917 8.275C12.1306 8.01389 12 7.7 12 7.33333C12 7.2 12.0194 7.075 12.0583 6.95833C12.0972 6.84167 12.15 6.72778 12.2167 6.61667L11.75 6.2C11.6389 6.11111 11.6194 6 11.6917 5.86667C11.7639 5.73333 11.8667 5.66667 12 5.66667H13.3333C13.7 5.66667 14.0139 5.79722 14.275 6.05833C14.5361 6.31944 14.6667 6.63333 14.6667 7V7.33333C14.6667 7.7 14.5361 8.01389 14.275 8.275C14.0139 8.53611 13.7 8.66667 13.3333 8.66667ZM0 12V10.95C0 10.4611 0.247222 10.0694 0.741667 9.775C1.23611 9.48056 1.87778 9.33333 2.66667 9.33333C2.81111 9.33333 2.95 9.33611 3.08333 9.34167C3.21667 9.34722 3.34444 9.36111 3.46667 9.38333C3.31111 9.60556 3.19444 9.84444 3.11667 10.1C3.03889 10.3556 3 10.6278 3 10.9167V12H0ZM4 12V10.9167C4 10.1944 4.36944 9.61111 5.10833 9.16667C5.84722 8.72222 6.81111 8.5 8 8.5C9.2 8.5 10.1667 8.72222 10.9 9.16667C11.6333 9.61111 12 10.1944 12 10.9167V12H4ZM13.3333 9.33333C14.1333 9.33333 14.7778 9.48056 15.2667 9.775C15.7556 10.0694 16 10.4611 16 10.95V12H13V10.9167C13 10.6278 12.9639 10.3556 12.8917 10.1C12.8194 9.84444 12.7111 9.60556 12.5667 9.38333C12.6889 9.36111 12.8139 9.34722 12.9417 9.34167C13.0694 9.33611 13.2 9.33333 13.3333 9.33333ZM8 9.83333C7.36667 9.83333 6.8 9.91667 6.3 10.0833C5.8 10.25 5.50556 10.4444 5.41667 10.6667H10.6C10.5 10.4444 10.2028 10.25 9.70833 10.0833C9.21389 9.91667 8.64444 9.83333 8 9.83333Z" fill="var(--fill-0, #1B1C1A)"/>
</g>
</svg>
