<svg preserveAspectRatio="none" width="100%" height="100%" overflow="visible" style="display: block;" viewBox="0 0 16 16" fill="none" xmlns="http://www.w3.org/2000/svg">
<g id="Tag Icon">
<path id="Vector" d="M8 14.6667C7.08889 14.6667 6.22778 14.4917 5.41667 14.1417C4.60555 13.7917 3.89722 13.3139 3.29167 12.7083C2.68611 12.1028 2.20833 11.3944 1.85833 10.5833C1.50833 9.77222 1.33333 8.91111 1.33333 8C1.33333 7.07778 1.51389 6.21111 1.875 5.4C2.23611 4.58889 2.725 3.88333 3.34167 3.28333C3.95833 2.68333 4.67778 2.20833 5.5 1.85833C6.32222 1.50833 7.2 1.33333 8.13333 1.33333C9.02222 1.33333 9.86111 1.48611 10.65 1.79167C11.4389 2.09722 12.1306 2.51944 12.725 3.05833C13.3194 3.59722 13.7917 4.23611 14.1417 4.975C14.4917 5.71389 14.6667 6.51111 14.6667 7.36667C14.6667 8.64444 14.2778 9.625 13.5 10.3083C12.7222 10.9917 11.7778 11.3333 10.6667 11.3333H9.43333C9.33333 11.3333 9.26389 11.3611 9.225 11.4167C9.18611 11.4722 9.16667 11.5333 9.16667 11.6C9.16667 11.7333 9.25 11.925 9.41667 12.175C9.58333 12.425 9.66667 12.7111 9.66667 13.0333C9.66667 13.5889 9.51389 14 9.20833 14.2667C8.90278 14.5333 8.5 14.6667 8 14.6667ZM5.05 8.38333C5.23889 8.19444 5.33333 7.95555 5.33333 7.66667C5.33333 7.37778 5.23889 7.13889 5.05 6.95C4.86111 6.76111 4.62222 6.66667 4.33333 6.66667C4.04444 6.66667 3.80555 6.76111 3.61667 6.95C3.42778 7.13889 3.33333 7.37778 3.33333 7.66667C3.33333 7.95555 3.42778 8.19444 3.61667 8.38333C3.80555 8.57222 4.04444 8.66667 4.33333 8.66667C4.62222 8.66667 4.86111 8.57222 5.05 8.38333ZM7.05 5.71667C7.23889 5.52778 7.33333 5.28889 7.33333 5C7.33333 4.71111 7.23889 4.47222 7.05 4.28333C6.86111 4.09444 6.62222 4 6.33333 4C6.04444 4 5.80555 4.09444 5.61667 4.28333C5.42778 4.47222 5.33333 4.71111 5.33333 5C5.33333 5.28889 5.42778 5.52778 5.61667 5.71667C5.80555 5.90555 6.04444 6 6.33333 6C6.62222 6 6.86111 5.90555 7.05 5.71667ZM10.3833 5.71667C10.5722 5.52778 10.6667 5.28889 10.6667 5C10.6667 4.71111 10.5722 4.47222 10.3833 4.28333C10.1944 4.09444 9.95555 4 9.66667 4C9.37778 4 9.13889 4.09444 8.95 4.28333C8.76111 4.47222 8.66667 4.71111 8.66667 5C8.66667 5.28889 8.76111 5.52778 8.95 5.71667C9.13889 5.90555 9.37778 6 9.66667 6C9.95555 6 10.1944 5.90555 10.3833 5.71667ZM12.3833 8.38333C12.5722 8.19444 12.6667 7.95555 12.6667 7.66667C12.6667 7.37778 12.5722 7.13889 12.3833 6.95C12.1944 6.76111 11.9556 6.66667 11.6667 6.66667C11.3778 6.66667 11.1389 6.76111 10.95 6.95C10.7611 7.13889 10.6667 7.37778 10.6667 7.66667C10.6667 7.95555 10.7611 8.19444 10.95 8.38333C11.1389 8.57222 11.3778 8.66667 11.6667 8.66667C11.9556 8.66667 12.1944 8.57222 12.3833 8.38333ZM8 13.3333C8.1 13.3333 8.18055 13.3056 8.24167 13.25C8.30278 13.1944 8.33333 13.1222 8.33333 13.0333C8.33333 12.8778 8.25 12.6944 8.08333 12.4833C7.91667 12.2722 7.83333 11.9556 7.83333 11.5333C7.83333 11.0667 7.99444 10.6944 8.31667 10.4167C8.63889 10.1389 9.03333 10 9.5 10H10.6667C11.4 10 12.0278 9.78611 12.55 9.35833C13.0722 8.93055 13.3333 8.26667 13.3333 7.36667C13.3333 6.02222 12.8194 4.90278 11.7917 4.00833C10.7639 3.11389 9.54444 2.66667 8.13333 2.66667C6.62222 2.66667 5.33333 3.18333 4.26667 4.21667C3.2 5.25 2.66667 6.51111 2.66667 8C2.66667 9.47778 3.18611 10.7361 4.225 11.775C5.26389 12.8139 6.52222 13.3333 8 13.3333Z" fill="var(--fill-0, #1B1C1A)"/>
</g>
</svg>
