<svg preserveAspectRatio="none" width="100%" height="100%" overflow="visible" style="display: block;" viewBox="0 0 16 16" fill="none" xmlns="http://www.w3.org/2000/svg">
<g id="Tag Icon">
<path id="Vector" d="M12.6 14L8.95 10.35L10.35 8.95L14 12.6L12.6 14ZM3.4 14L2 12.6L6.6 8L5.46667 6.86667L5 7.33333L4.15 6.48333V7.85L3.68333 8.31667L1.66667 6.3L2.13333 5.83333H3.5L2.66667 5L5.03333 2.63333C5.25556 2.41111 5.49444 2.25 5.75 2.15C6.00556 2.05 6.26667 2 6.53333 2C6.8 2 7.06111 2.05 7.31667 2.15C7.57222 2.25 7.81111 2.41111 8.03333 2.63333L6.5 4.16667L7.33333 5L6.86667 5.46667L8 6.6L9.5 5.1C9.45555 4.97778 9.41944 4.85 9.39167 4.71667C9.36389 4.58333 9.35 4.45 9.35 4.31667C9.35 3.66111 9.575 3.10833 10.025 2.65833C10.475 2.20833 11.0278 1.98333 11.6833 1.98333C11.85 1.98333 12.0083 2 12.1583 2.03333C12.3083 2.06667 12.4611 2.11667 12.6167 2.18333L10.9667 3.83333L12.1667 5.03333L13.8167 3.38333C13.8944 3.53889 13.9472 3.69167 13.975 3.84167C14.0028 3.99167 14.0167 4.15 14.0167 4.31667C14.0167 4.97222 13.7917 5.525 13.3417 5.975C12.8917 6.425 12.3389 6.65 11.6833 6.65C11.55 6.65 11.4167 6.63889 11.2833 6.61667C11.15 6.59444 11.0222 6.55555 10.9 6.5L3.4 14Z" fill="var(--fill-0, #1B1C1A)"/>
</g>
</svg>
