<svg preserveAspectRatio="none" width="100%" height="100%" overflow="visible" style="display: block;" viewBox="0 0 16 16" fill="none" xmlns="http://www.w3.org/2000/svg">
<g id="Tag Icon">
<path id="Vector" d="M6.66667 9.33333H9.33333V8H6.66667V9.33333ZM6.66667 7.33333H12V6H6.66667V7.33333ZM6.66667 5.33333H12V4H6.66667V5.33333ZM5.33333 12C4.96667 12 4.65278 11.8694 4.39167 11.6083C4.13055 11.3472 4 11.0333 4 10.6667V2.66667C4 2.3 4.13055 1.98611 4.39167 1.725C4.65278 1.46389 4.96667 1.33333 5.33333 1.33333H13.3333C13.7 1.33333 14.0139 1.46389 14.275 1.725C14.5361 1.98611 14.6667 2.3 14.6667 2.66667V10.6667C14.6667 11.0333 14.5361 11.3472 14.275 11.6083C14.0139 11.8694 13.7 12 13.3333 12H5.33333ZM5.33333 10.6667H13.3333V2.66667H5.33333V10.6667ZM2.66667 14.6667C2.3 14.6667 1.98611 14.5361 1.725 14.275C1.46389 14.0139 1.33333 13.7 1.33333 13.3333V4H2.66667V13.3333H12V14.6667H2.66667Z" fill="var(--fill-0, #1B1C1A)"/>
</g>
</svg>
