<svg preserveAspectRatio="none" width="100%" height="100%" overflow="visible" style="display: block;" viewBox="0 0 16 16" fill="none" xmlns="http://www.w3.org/2000/svg">
<g id="Tag Icon">
<path id="Vector" d="M0.7 14V12.1333C0.7 11.7667 0.794444 11.4222 0.983333 11.1C1.17222 10.7778 1.43333 10.5333 1.76667 10.3667C2.33333 10.0778 2.97222 9.83333 3.68333 9.63333C4.39444 9.43333 5.17778 9.33333 6.03333 9.33333C6.88889 9.33333 7.67222 9.43333 8.38333 9.63333C9.09444 9.83333 9.73333 10.0778 10.3 10.3667C10.6333 10.5333 10.8944 10.7778 11.0833 11.1C11.2722 11.4222 11.3667 11.7667 11.3667 12.1333V14H0.7ZM2.03333 12.6667H10.0333V12.1333C10.0333 12.0111 10.0028 11.9 9.94167 11.8C9.88055 11.7 9.8 11.6222 9.7 11.5667C9.3 11.3667 8.78611 11.1667 8.15833 10.9667C7.53056 10.7667 6.82222 10.6667 6.03333 10.6667C5.24444 10.6667 4.53611 10.7667 3.90833 10.9667C3.28056 11.1667 2.76667 11.3667 2.36667 11.5667C2.26667 11.6222 2.18611 11.7 2.125 11.8C2.06389 11.9 2.03333 12.0111 2.03333 12.1333V12.6667ZM4.15 7.88333C3.62778 7.36111 3.36667 6.73333 3.36667 6H3.2C3.1 6 3.01944 5.96944 2.95833 5.90833C2.89722 5.84722 2.86667 5.76667 2.86667 5.66667C2.86667 5.56667 2.89722 5.48611 2.95833 5.425C3.01944 5.36389 3.1 5.33333 3.2 5.33333H3.36667C3.36667 4.83333 3.48889 4.38333 3.73333 3.98333C3.97778 3.58333 4.3 3.26667 4.7 3.03333V3.66667C4.7 3.76667 4.73056 3.84722 4.79167 3.90833C4.85278 3.96944 4.93333 4 5.03333 4C5.13333 4 5.21389 3.96944 5.275 3.90833C5.33611 3.84722 5.36667 3.76667 5.36667 3.66667V2.76667C5.46667 2.73333 5.57222 2.70833 5.68333 2.69167C5.79444 2.675 5.91111 2.66667 6.03333 2.66667C6.15556 2.66667 6.27222 2.675 6.38333 2.69167C6.49444 2.70833 6.6 2.73333 6.7 2.76667V3.66667C6.7 3.76667 6.73056 3.84722 6.79167 3.90833C6.85278 3.96944 6.93333 4 7.03333 4C7.13333 4 7.21389 3.96944 7.275 3.90833C7.33611 3.84722 7.36667 3.76667 7.36667 3.66667V3.03333C7.76667 3.26667 8.08889 3.58333 8.33333 3.98333C8.57778 4.38333 8.7 4.83333 8.7 5.33333H8.86667C8.96667 5.33333 9.04722 5.36389 9.10833 5.425C9.16944 5.48611 9.2 5.56667 9.2 5.66667C9.2 5.76667 9.16944 5.84722 9.10833 5.90833C9.04722 5.96944 8.96667 6 8.86667 6H8.7C8.7 6.73333 8.43889 7.36111 7.91667 7.88333C7.39444 8.40556 6.76667 8.66667 6.03333 8.66667C5.3 8.66667 4.67222 8.40556 4.15 7.88333ZM6.975 6.94167C7.23611 6.68056 7.36667 6.36667 7.36667 6H4.7C4.7 6.36667 4.83056 6.68056 5.09167 6.94167C5.35278 7.20278 5.66667 7.33333 6.03333 7.33333C6.4 7.33333 6.71389 7.20278 6.975 6.94167ZM11.0333 10L10.9333 9.5C10.8667 9.47778 10.8028 9.45278 10.7417 9.425C10.6806 9.39722 10.6222 9.35556 10.5667 9.3L10.1 9.46667L9.76667 8.86667L10.1333 8.53333V8.13333L9.76667 7.8L10.1 7.2L10.5667 7.36667C10.6111 7.32222 10.6667 7.28333 10.7333 7.25C10.8 7.21667 10.8667 7.18889 10.9333 7.16667L11.0333 6.66667H11.7L11.8 7.16667C11.8667 7.18889 11.9333 7.21667 12 7.25C12.0667 7.28333 12.1222 7.32222 12.1667 7.36667L12.6333 7.2L12.9667 7.8L12.6 8.13333V8.53333L12.9667 8.86667L12.6333 9.46667L12.1667 9.3C12.1111 9.35556 12.0528 9.39722 11.9917 9.425C11.9306 9.45278 11.8667 9.47778 11.8 9.5L11.7 10H11.0333ZM11.7167 8.68333C11.8167 8.58333 11.8667 8.46667 11.8667 8.33333C11.8667 8.2 11.8167 8.08333 11.7167 7.98333C11.6167 7.88333 11.5 7.83333 11.3667 7.83333C11.2333 7.83333 11.1167 7.88333 11.0167 7.98333C10.9167 8.08333 10.8667 8.2 10.8667 8.33333C10.8667 8.46667 10.9167 8.58333 11.0167 8.68333C11.1167 8.78333 11.2333 8.83333 11.3667 8.83333C11.5 8.83333 11.6167 8.78333 11.7167 8.68333ZM12.5667 6.66667L12.4333 5.96667C12.3333 5.93333 12.2417 5.89167 12.1583 5.84167C12.075 5.79167 12 5.73333 11.9333 5.66667L11.2333 5.9L10.7667 5.1L11.3333 4.6C11.3111 4.54444 11.3 4.5 11.3 4.46667V4.2C11.3 4.16667 11.3111 4.12222 11.3333 4.06667L10.7667 3.56667L11.2333 2.76667L11.9333 3C12 2.93333 12.075 2.875 12.1583 2.825C12.2417 2.775 12.3333 2.73333 12.4333 2.7L12.5667 2H13.5L13.6333 2.7C13.7333 2.73333 13.825 2.775 13.9083 2.825C13.9917 2.875 14.0667 2.93333 14.1333 3L14.8333 2.76667L15.3 3.56667L14.7333 4.06667C14.7556 4.12222 14.7667 4.16667 14.7667 4.2V4.46667C14.7667 4.5 14.7556 4.54444 14.7333 4.6L15.3 5.1L14.8333 5.9L14.1333 5.66667C14.0667 5.73333 13.9917 5.79167 13.9083 5.84167C13.825 5.89167 13.7333 5.93333 13.6333 5.96667L13.5 6.66667H12.5667ZM13.625 4.925C13.7861 4.76389 13.8667 4.56667 13.8667 4.33333C13.8667 4.1 13.7861 3.90278 13.625 3.74167C13.4639 3.58056 13.2667 3.5 13.0333 3.5C12.8 3.5 12.6028 3.58056 12.4417 3.74167C12.2806 3.90278 12.2 4.1 12.2 4.33333C12.2 4.56667 12.2806 4.76389 12.4417 4.925C12.6028 5.08611 12.8 5.16667 13.0333 5.16667C13.2667 5.16667 13.4639 5.08611 13.625 4.925Z" fill="var(--fill-0, #1B1C1A)"/>
</g>
</svg>
