<svg preserveAspectRatio="none" width="100%" height="100%" overflow="visible" style="display: block;" viewBox="0 0 16 16" fill="none" xmlns="http://www.w3.org/2000/svg">
<g id="Tag Icon">
<path id="Vector" d="M12 8.66667V7.33333H14.6667V8.66667H12ZM12.8 13.3333L10.6667 11.7333L11.4667 10.6667L13.6 12.2667L12.8 13.3333ZM11.4667 5.33333L10.6667 4.26667L12.8 2.66667L13.6 3.73333L11.4667 5.33333ZM3.33333 12.6667V10H2.66667C2.3 10 1.98611 9.86945 1.725 9.60833C1.46389 9.34722 1.33333 9.03333 1.33333 8.66667V7.33333C1.33333 6.96667 1.46389 6.65278 1.725 6.39167C1.98611 6.13056 2.3 6 2.66667 6H5.33333L8.66667 4V12L5.33333 10H4.66667V12.6667H3.33333ZM7.33333 9.63333V6.36667L5.7 7.33333H2.66667V8.66667H5.7L7.33333 9.63333ZM9.33333 10.2333V5.76667C9.63333 6.03333 9.875 6.35833 10.0583 6.74167C10.2417 7.125 10.3333 7.54445 10.3333 8C10.3333 8.45556 10.2417 8.875 10.0583 9.25833C9.875 9.64167 9.63333 9.96667 9.33333 10.2333Z" fill="var(--fill-0, #1B1C1A)"/>
</g>
</svg>
