<svg xmlns="http://www.w3.org/2000/svg" width="289" height="54" viewBox="0 0 289 54">
  <g fill="none" fill-rule="evenodd">
    <g fill="#DA2E3B">
      <polygon points="1.918 52.908 18.222 44.393 1.918 36.132"/>
      <polygon points="2.045 28.38 36.665 32.261 45.715 23.133 0 22.26"/>
      <polygon points="51.846 0 4.795 7.742 7.124 14.84 57.863 8.896"/>
    </g>
    <path fill="#373737" fill-rule="nonzero" d="M68.564,35 L68.564,29.654 L74.234,29.654 L74.234,27.782 L68.564,27.782 L68.564,24.254 L74.792,24.254 L74.792,22.4 L66.584,22.4 L66.584,35 L68.564,35 Z M78.32,35 L78.32,22.202 L76.412,22.202 L76.412,35 L78.32,35 Z M84.854,35.198 C86.744,35.198 88.49,34.28 88.904,32.228 L87.014,32.228 C86.708,33.128 85.898,33.524 84.926,33.524 C83.486,33.524 82.55,32.714 82.37,31.022 L89.03,31.022 L89.03,29.978 C89.03,26.936 87.194,25.64 84.908,25.64 C82.136,25.64 80.48,27.692 80.48,30.5 C80.48,33.632 82.406,35.198 84.854,35.198 Z M87.176,29.51 L82.442,29.51 C82.694,28.196 83.504,27.314 84.944,27.314 C86.492,27.314 87.14,28.214 87.176,29.51 Z M93.116,35 L93.116,32.534 L94.646,30.95 L97.49,35 L99.83,35 L95.942,29.582 L99.578,25.82 L97.13,25.82 L93.116,30.23 L93.116,22.202 L91.208,22.202 L91.208,35 L93.116,35 Z M105.068,35.198 C107.084,35.198 108.812,34.226 108.812,32.264 C108.812,30.248 106.976,29.942 105.176,29.636 C103.898,29.438 102.944,29.258 102.944,28.376 C102.944,27.674 103.538,27.206 104.636,27.206 C105.77,27.206 106.58,27.638 106.706,28.574 L108.632,28.574 C108.452,26.63 106.832,25.64 104.744,25.64 C102.656,25.64 101.09,26.63 101.09,28.574 C101.09,30.608 102.836,30.932 104.78,31.256 C106.094,31.49 106.94,31.634 106.94,32.462 C106.94,33.254 106.184,33.632 105.14,33.632 C103.988,33.632 103.07,33.182 102.836,32.156 L100.874,32.156 C101.072,34.244 103.088,35.198 105.068,35.198 Z M112.826,24.29 L112.826,22.184 L110.792,22.184 L110.792,24.29 L112.826,24.29 Z M112.754,35 L112.754,25.82 L110.846,25.82 L110.846,35 L112.754,35 Z M120.386,35.198 C122.564,35.198 124.544,33.686 124.544,30.41 C124.544,27.206 122.636,25.64 120.53,25.64 C119.108,25.64 117.884,26.378 117.416,27.458 L117.416,22.202 L115.508,22.202 L115.508,35 L117.272,35 L117.272,33.398 C117.668,34.334 118.784,35.198 120.386,35.198 Z M120.008,33.452 C118.676,33.452 117.398,32.534 117.398,30.41 C117.398,28.286 118.676,27.404 120.008,27.404 C121.358,27.404 122.6,28.304 122.6,30.41 C122.6,32.516 121.34,33.452 120.008,33.452 Z M130.466,35.198 C132.356,35.198 134.102,34.28 134.516,32.228 L132.626,32.228 C132.32,33.128 131.51,33.524 130.538,33.524 C129.098,33.524 128.162,32.714 127.982,31.022 L134.642,31.022 L134.642,29.978 C134.642,26.936 132.806,25.64 130.52,25.64 C127.748,25.64 126.092,27.692 126.092,30.5 C126.092,33.632 128.018,35.198 130.466,35.198 Z M132.788,29.51 L128.054,29.51 C128.306,28.196 129.116,27.314 130.556,27.314 C132.104,27.314 132.752,28.214 132.788,29.51 Z M138.728,35 L138.728,22.202 L136.82,22.202 L136.82,35 L138.728,35 Z M149.312,35.198 C150.68,35.198 151.724,34.586 152.282,33.434 L152.282,35 L154.136,35 L154.136,25.82 L152.228,25.82 L152.228,30.734 C152.228,32.39 151.292,33.524 149.906,33.524 C148.862,33.524 148.106,32.912 148.106,31.652 L148.106,25.82 L146.198,25.82 L146.198,31.904 C146.198,33.956 147.332,35.198 149.312,35.198 Z M161.642,35 L161.642,33.308 L160.436,33.308 C159.644,33.308 159.428,32.948 159.428,32.228 L159.428,27.512 L161.444,27.512 L161.444,25.82 L159.428,25.82 L159.428,22.994 L157.52,23.516 L157.52,25.82 L155.81,25.82 L155.81,27.512 L157.52,27.512 L157.52,32.498 C157.52,34.478 158.582,35 160.058,35 L161.642,35 Z M167.24,35.198 C168.842,35.198 169.958,34.334 170.354,33.434 L170.354,35 L172.136,35 L172.136,22.202 L170.228,22.202 L170.228,27.188 C169.724,26.27 168.572,25.64 167.204,25.64 C165.062,25.64 163.1,27.152 163.1,30.392 C163.1,33.668 165.098,35.198 167.24,35.198 Z M167.636,33.434 C166.286,33.434 165.044,32.48 165.044,30.374 C165.044,28.268 166.268,27.386 167.636,27.386 C168.968,27.386 170.246,28.25 170.246,30.374 C170.246,32.498 168.968,33.434 167.636,33.434 Z M177.338,35.198 C178.832,35.198 179.93,34.478 180.578,33.38 L180.578,35 L182.342,35 L182.342,28.682 C182.342,26.63 181.046,25.64 178.742,25.64 C176.528,25.64 174.872,26.612 174.53,28.646 L176.402,28.646 C176.618,27.746 177.392,27.206 178.652,27.206 C179.768,27.206 180.416,27.62 180.416,28.466 C180.416,29.276 179.804,29.384 179.3,29.456 L177.23,29.744 C175.862,29.924 174.332,30.554 174.332,32.48 C174.332,34.262 175.646,35.198 177.338,35.198 Z M177.842,33.578 C176.924,33.578 176.276,33.182 176.276,32.336 C176.276,31.328 177.23,31.13 177.86,31.04 L178.994,30.878 C179.732,30.752 180.092,30.662 180.434,30.518 L180.434,31.112 C180.434,32.606 179.264,33.578 177.842,33.578 Z M186.968,35 L186.968,30.068 C186.968,28.322 188.048,27.35 189.416,27.35 C190.478,27.35 191.252,27.962 191.252,29.222 L191.252,35 L193.16,35 L193.16,28.934 C193.16,26.882 192.116,25.64 190.046,25.64 C188.534,25.64 187.454,26.288 186.914,27.404 L186.914,25.82 L185.06,25.82 L185.06,35 L186.968,35 Z M197.786,35 L197.786,30.068 C197.786,28.322 198.866,27.35 200.234,27.35 C201.296,27.35 202.07,27.962 202.07,29.222 L202.07,35 L203.978,35 L203.978,28.934 C203.978,26.882 202.934,25.64 200.864,25.64 C199.352,25.64 198.272,26.288 197.732,27.404 L197.732,25.82 L195.878,25.82 L195.878,35 L197.786,35 Z M208.622,24.29 L208.622,22.184 L206.588,22.184 L206.588,24.29 L208.622,24.29 Z M208.55,35 L208.55,25.82 L206.642,25.82 L206.642,35 L208.55,35 Z M213.212,35 L213.212,30.068 C213.212,28.322 214.292,27.35 215.66,27.35 C216.722,27.35 217.496,27.962 217.496,29.222 L217.496,35 L219.404,35 L219.404,28.934 C219.404,26.882 218.36,25.64 216.29,25.64 C214.778,25.64 213.698,26.288 213.158,27.404 L213.158,25.82 L211.304,25.82 L211.304,35 L213.212,35 Z M226.082,38.654 C228.512,38.654 230.51,37.322 230.51,34.496 L230.51,25.82 L228.656,25.82 L228.656,27.134 C228.206,26.324 227.18,25.64 225.74,25.64 C223.508,25.64 221.492,27.116 221.492,30.23 C221.492,33.236 223.4,34.694 225.614,34.694 C226.838,34.694 228.062,34.136 228.638,33.002 L228.638,34.694 C228.638,36.314 227.648,37.088 226.118,37.088 C224.66,37.088 223.85,36.368 223.634,35.414 L221.708,35.414 C221.996,37.52 223.85,38.654 226.082,38.654 Z M226.01,33.038 C224.678,33.038 223.436,32.138 223.436,30.23 C223.436,28.286 224.732,27.404 226.046,27.404 C227.36,27.404 228.584,28.304 228.584,30.248 C228.584,32.246 227.252,33.038 226.01,33.038 Z M240.122,35 L240.122,25.406 L246.26,35 L248.384,35 L248.384,22.4 L246.422,22.4 L246.422,31.886 L240.41,22.4 L238.178,22.4 L238.178,35 L240.122,35 Z M255.44,35.198 C258.086,35.198 259.958,33.38 259.958,30.41 C259.958,27.44 258.068,25.64 255.422,25.64 C252.776,25.64 250.904,27.458 250.904,30.428 C250.904,33.398 252.794,35.198 255.44,35.198 Z M255.44,33.38 C254,33.38 252.848,32.354 252.848,30.446 C252.848,28.466 253.928,27.458 255.422,27.458 C256.862,27.458 258.014,28.484 258.014,30.392 C258.014,32.372 256.934,33.38 255.44,33.38 Z M264.044,35 L264.044,30.464 C264.044,28.682 264.746,27.566 266.51,27.566 L267.23,27.566 L267.23,25.712 L266.474,25.712 C265.178,25.712 264.35,26.414 263.99,27.512 L263.99,25.82 L262.136,25.82 L262.136,35 L264.044,35 Z M273.044,38.654 C275.474,38.654 277.472,37.322 277.472,34.496 L277.472,25.82 L275.618,25.82 L275.618,27.134 C275.168,26.324 274.142,25.64 272.702,25.64 C270.47,25.64 268.454,27.116 268.454,30.23 C268.454,33.236 270.362,34.694 272.576,34.694 C273.8,34.694 275.024,34.136 275.6,33.002 L275.6,34.694 C275.6,36.314 274.61,37.088 273.08,37.088 C271.622,37.088 270.812,36.368 270.596,35.414 L268.67,35.414 C268.958,37.52 270.812,38.654 273.044,38.654 Z M272.972,33.038 C271.64,33.038 270.398,32.138 270.398,30.23 C270.398,28.286 271.694,27.404 273.008,27.404 C274.322,27.404 275.546,28.304 275.546,30.248 C275.546,32.246 274.214,33.038 272.972,33.038 Z M283.934,35.198 C285.824,35.198 287.57,34.28 287.984,32.228 L286.094,32.228 C285.788,33.128 284.978,33.524 284.006,33.524 C282.566,33.524 281.63,32.714 281.45,31.022 L288.11,31.022 L288.11,29.978 C288.11,26.936 286.274,25.64 283.988,25.64 C281.216,25.64 279.56,27.692 279.56,30.5 C279.56,33.632 281.486,35.198 283.934,35.198 Z M286.256,29.51 L281.522,29.51 C281.774,28.196 282.584,27.314 284.024,27.314 C285.572,27.314 286.22,28.214 286.256,29.51 Z"/>
  </g>
</svg>
