<svg xmlns="http://www.w3.org/2000/svg" width="116" height="26" viewBox="0 0 116 26"><g fill="#FFF" transform="translate(0 .311)"><polygon points="9.79 14.98 8.45 16.29 8.45 20.44 10 20.44 10 24.37 0 24.37 0 20.44 1.44 20.44 1.44 3.94 .05 3.94 .05 0 10.05 0 10.05 3.94 8.45 3.94 8.45 10.94 14.61 3.94 13.13 3.94 13.13 0 21.89 0 21.89 3.94 20.73 3.94 14.93 10.69 20.64 20.44 22.05 20.44 22.05 24.37 15.14 24.37"/><path d="M23.2,20.4403943 L24.57,20.4403943 L24.57,3.94039429 L23.2,3.94039429 L23.2,0.00039429 L30.64,0.00039429 L30.64,6.89039429 L30.78,6.89039429 C32.2461183,5.19866057 34.4033055,4.26731524 36.64,4.36039429 C39.38,4.36039429 41.49,5.70039429 41.49,8.8303943 L41.49,20.4403943 L42.79,20.4403943 L42.79,24.3703943 L34.24,24.3703943 L34.24,20.4403943 L35.16,20.4403943 L35.16,11.0103943 C35.16,9.5703943 34.63,9.1803943 33.4,9.1803943 C32.4994266,9.2035529 31.6218392,9.4695932 30.86,9.9503943 L30.86,20.4403943 L31.78,20.4403943 L31.78,24.3703943 L23.2,24.3703943 L23.2,20.4403943 Z M44.19,20.4403943 L45.64,20.4403943 L45.64,8.9703943 L44.13,8.9703943 L44.13,4.78039429 L51.64,4.78039429 L51.64,7.67039429 L51.78,7.67039429 C52.7952574,5.77115483 54.7972943,4.60943126 56.95,4.67039429 L56.95,10.1603943 C55.190667,10.1716076 53.4581648,10.5927494 51.89,11.3903943 L51.89,20.3903943 L53.61,20.3903943 L53.61,24.3203943 L44.22,24.3203943 L44.19,20.4403943 Z M57.4,15.1903943 L57.4,13.9603943 C57.4,7.56039429 61.09,4.36039429 66.4,4.36039429 C71.71,4.36039429 75.51,7.56039429 75.51,13.9603943 L75.51,15.1903943 C75.51,21.6003943 71.78,24.7603943 66.4,24.7603943 C61.02,24.7603943 57.4,21.6003943 57.4,15.1903943 Z M69.11,16.1903943 L69.11,13.1903943 C69.11,10.0203943 68.19,8.9703943 66.47,8.9703943 C64.75,8.9703943 63.83,10.0203943 63.83,13.1903943 L63.83,16.1903943 C63.83,19.3603943 64.83,20.3803943 66.47,20.3803943 C68.11,20.3803943 69.11,19.3803943 69.11,16.2103943 L69.11,16.1903943 Z M76.75,20.4403943 L78.12,20.4403943 L78.12,8.9703943 L76.75,8.9703943 L76.75,4.78039429 L84.2,4.78039429 L84.2,6.89039429 L84.34,6.89039429 C85.7998606,5.22257063 87.935204,4.30374818 90.15,4.39039429 C92.89,4.39039429 95,5.73039429 95,8.8603943 L95,20.4403943 L96.3,20.4403943 L96.3,24.3703943 L87.79,24.3703943 L87.79,20.4403943 L88.7,20.4403943 L88.7,11.0103943 C88.7,9.5703943 88.18,9.1803943 86.95,9.1803943 C86.0494266,9.2035529 85.1718392,9.4695932 84.41,9.9503943 L84.41,20.4403943 L85.33,20.4403943 L85.33,24.3703943 L76.75,24.3703943 L76.75,20.4403943 Z M97.47,15.1903943 L97.47,13.9603943 C97.47,7.56039429 101.16,4.36039429 106.47,4.36039429 C111.78,4.36039429 115.58,7.56039429 115.58,13.9603943 L115.58,15.1903943 C115.58,21.6003943 111.85,24.7603943 106.47,24.7603943 C101.09,24.7603943 97.47,21.6003943 97.47,15.1903943 Z M109.18,16.1903943 L109.18,13.1903943 C109.18,10.0203943 108.27,8.9703943 106.54,8.9703943 C104.81,8.9703943 103.9,10.0203943 103.9,13.1903943 L103.9,16.1903943 C103.9,19.3603943 104.9,20.3803943 106.54,20.3803943 C108.18,20.3803943 109.18,19.3803943 109.18,16.2103943 L109.18,16.1903943 Z"/></g></svg>