<?xml version="1.0" encoding="UTF-8"?>
<svg version="1.1" id="Layer_1" xmlns="http://www.w3.org/2000/svg" xmlns:xlink="http://www.w3.org/1999/xlink" viewBox="0 0 595.37 52.12">
    <defs>
        <style>.cls-1{fill:#e9530d;}.cls-2{fill:#3b0f10;}</style>
    </defs>
    <path class="cls-2" d="M0,35.02V.75H12.75V34.72c0,5.1,3.45,6.45,6.97,6.45s6.97-1.35,6.97-6.45V.75h12.75V35.02c0,13.5-11.4,17.1-19.72,17.1S0,48.52,0,35.02Z"/>
    <path class="cls-2" d="M68.1,11.25V51.37h-12.75V11.25h-11.92V.75h36.52V11.25h-11.85Z"/>
    <path class="cls-2" d="M84.3,.75h20.7c6.45,0,10.35,1.8,12.97,4.42,4.05,4.05,5.7,10.5,5.7,20.77s-1.58,16.87-5.7,21c-2.47,2.47-6.67,4.42-13.12,4.42h-20.55V.75Zm23.7,12.52c-1.72-1.95-4.12-2.17-7.05-2.17h-3.9v29.92h3.9c2.92,0,5.4-.3,7.05-2.17,1.8-1.95,2.25-6.08,2.25-12.82s-.6-10.88-2.25-12.75Z"/>
    <path class="cls-2" d="M156.45,51.37l-2.47-9.22h-13.35l-2.55,9.22h-13.12L139.12,.75h16.2l14.62,50.62h-13.5Zm-13.57-19.42h8.7l-3.15-14.02c-.38-1.58-.97-5.48-1.2-7.2h-.15c-.23,1.72-.75,5.62-1.12,7.2l-3.08,14.02Z"/>
    <path class="cls-2" d="M201.97,27.45c.98,2.4,1.95,5.17,2.78,8.17h.15c-.22-3.08-.38-6.08-.38-8.85l-.07-26.02h11.4V51.37h-15.38l-11.62-26.32c-.83-1.95-1.95-5.17-2.62-8.02h-.15c.3,2.92,.45,6.45,.45,9.22l.08,25.12h-11.62V.75h15.75l11.25,26.7Z"/>
    <path class="cls-2" d="M251.62,27.45c.98,2.4,1.95,5.17,2.78,8.17h.15c-.22-3.08-.38-6.08-.38-8.85l-.07-26.02h11.4V51.37h-15.37l-11.62-26.32c-.83-1.95-1.95-5.17-2.62-8.02h-.15c.3,2.92,.45,6.45,.45,9.22l.08,25.12h-11.62V.75h15.75l11.25,26.7Z"/>
    <path class="cls-2" d="M274.27,51.37V.75h12.75V51.37h-12.75Z"/>
    <path class="cls-2" d="M322.87,27.45c.98,2.4,1.95,5.17,2.78,8.17h.15c-.22-3.08-.38-6.08-.38-8.85l-.07-26.02h11.4V51.37h-15.38l-11.62-26.32c-.83-1.95-1.95-5.17-2.62-8.02h-.15c.3,2.92,.45,6.45,.45,9.22l.08,25.12h-11.62V.75h15.75l11.25,26.7Z"/>
    <path class="cls-2" d="M367.42,41.55c.97,0,3.22-.15,4.2-.38v-15.83h12.37v24.45c-4.05,1.28-10.95,2.33-15.9,2.33-17.47,0-24.45-7.58-24.45-26.1,0-17.55,6.15-26.02,24.52-26.02,3.67,0,9.15,.38,13.35,1.12l-.45,10.65c-4.12-.6-8.62-1.05-12.3-1.05-8.32,0-11.7,2.85-11.7,15.3s3.38,15.52,10.35,15.52Z"/>
    <path class="cls-2" d="M403.94,52.12c-3.22,0-10.12-.15-14.55-.83l.45-10.8c5.33,.75,10.65,.9,12.97,.9,4.8,0,6.22-.97,6.22-3.45,0-1.57-.75-2.62-2.92-4.05l-10.87-7.35c-4.95-3.38-6.75-8.47-6.75-12.75,0-11.02,7.88-13.8,18.37-13.8,2.92,0,8.78,.23,12.52,.75l-.52,10.5c-3.3-.45-8.1-.75-10.88-.75-3.52,0-6.07,.38-6.07,3,0,1.72,.67,2.62,3.67,4.65l10.27,6.97c3,2.03,6.67,5.02,6.67,12,0,11.47-9.3,15-18.6,15Z"/>
    <path class="cls-1" d="M455.24,27.45c.98,2.4,1.95,5.17,2.78,8.17h.15c-.22-3.08-.38-6.08-.38-8.85l-.07-26.02h11.4V51.37h-15.38l-11.62-26.32c-.83-1.95-1.95-5.17-2.62-8.02h-.15c.3,2.92,.45,6.45,.45,9.22l.08,25.12h-11.62V.75h15.75l11.25,26.7Z"/>
    <path class="cls-1" d="M489.22,51.37v-19.2L473.39,.75h14.02l6.22,13.65c.52,1.2,1.65,4.2,2.02,5.7h.15c.38-1.5,1.5-4.5,2.02-5.7l6.23-13.65h13.72l-15.82,31.5v19.12h-12.75Z"/>
    <path class="cls-1" d="M544.08,11.25V51.37h-12.75V11.25h-11.92V.75h36.52V11.25h-11.85Z"/>
    <path class="cls-1" d="M583.53,11.25V51.37h-12.75V11.25h-11.92V.75h36.52V11.25h-11.85Z"/>
</svg>