<svg id="Layer_1" data-name="Layer 1" xmlns="http://www.w3.org/2000/svg" xmlns:xlink="http://www.w3.org/1999/xlink" viewBox="0 0 510.32 90.77"><defs><style>.cls-1{fill:#231f20;}</style><symbol id="logo" data-name="logo" viewBox="0 0 510.32 90.77"><path class="cls-1" d="M35.72,61.13q-1.24,15.37-5,21.7-4,6.7-12.39,6.7-9.58,0-14-10.23T0,45Q0,21,4.37,10.48T18.54,0a13.64,13.64,0,0,1,13,7.94q3.33,6.57,4,20.58L21.35,31Q21,20.59,20.62,18.23c-.35-2.32-1.08-3.47-2.19-3.47q-2.91,0-3.43,13.64V44.52q0,18.23-.11,16.36.63,13.89,3.75,13.89c1,0,1.67-1,2.09-3a106.65,106.65,0,0,0,1-13.08Z"/><path class="cls-1" d="M75,44.64q0,24.06-4.42,34.47T56.4,89.53q-9.8,0-14.06-10.29T38.07,44.89q0-24.06,4.37-34.47T56.61,0q9.78,0,14.11,10.35T75,44.64Zm-15,.25q0-18,.1-16.25-.52-13.87-3.65-13.88-2.91,0-3.43,13.64V44.64q0,18-.11,16.24.52,13.89,3.54,13.89T60.15,61Q60,63,60.05,44.89Z"/><path class="cls-1" d="M122.74,88.16h-12.6V70.31q0-13.77.52-27-1.14,7.94-5.41,27.9l-4.17,19.59L96.91,71.18q-4-18.36-5.31-27.9.53,18.84.52,27V88.16H79.42V1.36H92.54l3.85,19.47q3.75,18.86,4.69,27.28.72-6.57,4.79-27.4l3.75-19.35h13.12Z"/><path class="cls-1" d="M162.74,26.66q0,13.64-5.11,20.58-4.57,6.21-12.81,6.2h-2.39V88.16H128.16V1.36H146Q162.74,1.36,162.74,26.66Zm-14.59.62a58.42,58.42,0,0,0-.31-7.69q-.83-4.83-4-4.83h-1.45V39.93h1.25q3.12,0,4.06-5A47.92,47.92,0,0,0,148.15,27.28Z"/><path class="cls-1" d="M201.48,64.48q0,25-18.12,25-8.76,0-13.23-6.33t-4.48-17.85v-64h14.58V66.59q0,8.18,3.44,8.18,3.22,0,3.23-8.18V1.36h14.58Z"/><path class="cls-1" d="M237.41,16.74h-9.27V88.16H213.56V16.74h-9.17V1.36h33Z"/><path class="cls-1" d="M270.63,88.16h-30.2V1.36H270V16.74H255v18h11.46V50.1H255V72.79h15.62Z"/><path class="cls-1" d="M309.79,88.16H295.21l-5.1-37.07h-1.25V88.16H274.59V1.36H292.4a14.27,14.27,0,0,1,11.87,5.58q4.91,6.33,4.9,19,0,13.89-6,20.33Zm-15.2-61.62a55.88,55.88,0,0,0-.31-7.32c-.63-3-1.95-4.46-4-4.46h-1.46V38.19h1.25c2,0,3.37-1.44,4.06-4.34A44.37,44.37,0,0,0,294.59,26.54Z"/><path class="cls-1" d="M362.7,1.36l-7.91,86.8H341.25l-1.46-15.37Q337.39,48,337,38.32q-.63,14.13-2.71,34.34l-1.56,15.5H319.17l-7.82-86.8h13.23l1.15,17.24q1,16.13,1.56,34,.42-7.08,2.5-34l1.35-17.24h11.67l1.46,17.24q1.77,21.45,2.5,34,.41-14.88,1.56-34l1-17.24Z"/><path class="cls-1" d="M400.13,44.64q0,24.06-4.43,34.47T381.49,89.53q-9.8,0-14.06-10.29t-4.27-34.35q0-24.06,4.37-34.47T381.69,0q9.8,0,14.12,10.35T400.13,44.64Zm-15,.25q0-18,.11-16.25-.53-13.87-3.65-13.88-2.91,0-3.44,13.64V44.64q0,18-.1,16.24.52,13.89,3.54,13.89T385.24,61Q385.14,63,385.13,44.89Z"/><path class="cls-1" d="M439.7,88.16H425.12L420,51.09h-1.25V88.16H404.5V1.36h17.81a14.3,14.3,0,0,1,11.88,5.58q4.89,6.33,4.89,19,0,13.89-6,20.33ZM424.5,26.54a54.1,54.1,0,0,0-.31-7.32c-.63-3-1.95-4.46-4-4.46h-1.46V38.19H420c2,0,3.37-1.44,4.06-4.34A44.37,44.37,0,0,0,424.5,26.54Z"/><path class="cls-1" d="M471.16,88.16h-27.6V1.36h14.58V72.79h13Z"/><path class="cls-1" d="M510.32,44.14q0,44-20,44H474.8V1.36h16.77q10.51,0,14.89,11.29Q510.31,22.57,510.32,44.14Zm-15,.25q0-18.72-1.15-24.43c-.62-3.14-1.91-4.71-3.85-4.71h-1.25V74.4h1c1.95,0,3.26-1.69,4-5.08Q495.31,63.25,495.32,44.39Z"/></symbol></defs><use width="510.32" height="90.77" xlink:href="#logo"/></svg>