<?xml version="1.0" encoding="utf-8"?>
<svg version="1.1" id="Layer_1" xmlns="http://www.w3.org/2000/svg" xmlns:xlink="http://www.w3.org/1999/xlink" x="0px" y="0px"
	 viewBox="0 0 1353 292" enable-background="new 0 0 1353 292" xml:space="preserve" preserveAspectRatio="xMinYMid meet">
<g>
	<path fill="#003178" d="M236.83,84.62v123.45c0,20.13,6.58,36.68,21.25,36.68c8.88,0,20.85-5.52,33.23-17.35V84.62h50.98v203.13
		h-42.1l-4.25-21.31c-23.57,19.72-39.03,25.25-57.95,25.25c-30.53,0-51.77-22.47-51.77-69.82V84.62H236.83"/>
	<path fill="#003178" d="M476.53,287.76l-4.27-21.32c-23.94,19.72-38.23,25.26-54.07,25.26c-35.95,0-60.67-34.32-60.67-102.95
		c0-73.36,29.75-108.47,65.3-108.47c14.67,0,28.6,7.5,44.82,22.1V8.88L518.25,1v286.76H476.53 M467.64,145.36
		c-12.36-11.84-22.8-17.36-30.91-17.36c-16.63,0-27.82,18.54-27.82,59.15c0,38.27,9.66,57.59,26.65,57.59
		c8.11,0,19.71-5.9,32.07-17.74V145.36z"/>
	<path fill="#003178" d="M593.05,291.69c-24.72,0-41.34-5.52-60.26-16.56l15.07-37.88c15.46,8.67,28.58,12.63,39.79,12.63
		c16.22,0,21.63-8.29,21.63-17.75c0-10.66-4.25-16.17-29.74-29.59c-33.23-15.38-45.61-35.88-45.61-62.71
		c0-35.1,25.51-59.56,65.3-59.56c20.47,0,38.64,5.13,55.63,14.99l-14.29,36.28c-12.36-5.51-24.72-11.03-37.47-11.03
		c-12.76,0-19.32,6.7-19.32,16.17c0,11.05,5.01,16.17,30.51,29.19c35.54,16.96,46.75,37.07,46.75,63.5
		C661.04,269.22,632.47,291.69,593.05,291.69"/>
	<path fill="#003178" d="M731.32,291.69c-25.12,0-46.75-9.87-46.75-54.44V125.24h-23.95V84.62h23.95V38.24l51-7.87v54.25h36.33
		v40.63h-36.33v102.95c0,14.2,2.7,18.93,15.84,18.93c4.25,0,10.43-0.79,17.39-1.98l3.1,39.84
		C761.08,288.53,745.63,291.69,731.32,291.69"/>
	<rect x="791.98" y="84.61" fill="#003178" width="50.62" height="203.13"/>
	<polygon fill="#003178" points="973.57,287.75 926.05,191.51 925.65,191.51 925.65,287.75 875.05,287.75 875.05,8.89 925.65,1.01
		925.65,166.26 926.05,166.26 967.39,84.62 1023.02,84.62 973.95,171.79 1032.69,287.75 	"/>
	<polygon fill="#003178" points="1140.86,287.75 1093.32,191.51 1092.94,191.51 1092.94,287.75 1042.34,287.75 1042.34,8.89
		1092.94,1.01 1092.94,166.26 1093.32,166.26 1134.66,84.62 1190.31,84.62 1141.24,171.79 1199.97,287.75 	"/>
	<path fill="#003178" d="M1311.27,287.76l-4.25-21.32c-23.94,19.72-38.24,25.26-54.08,25.26c-35.93,0-60.66-34.32-60.66-102.95
		c0-73.36,29.74-108.47,65.29-108.47c16.22,0,28.2,7.5,49.45,26.02l4.25-21.68H1353v203.13H1311.27 M1302.38,145.36
		c-12.35-11.84-22.8-17.36-30.91-17.36c-16.61,0-27.82,18.54-27.82,59.15c0,38.27,9.67,57.59,26.65,57.59
		c8.12,0,19.73-5.9,32.07-17.74V145.36z"/>
	<path fill="#003178" d="M126.57,147.73c24.34-7.9,36.31-28.01,36.31-55.63c0-52.44-33.99-70.59-91.17-70.59
		c-22.8,0-45.99,0.4-70.71,0.79V66.5l58.19-1.39l-0.01,0.04c2.15-0.14,4.65-0.25,7.88-0.25c37.47,0,44.82,11.84,44.82,31.95
		c0,18.54-6.56,33.92-47.13,33.92c-3.87,0-6.97,0-11.59-0.4V72.35h-0.24L1.49,79.99L1,80.03v207.71c24.34,0,47.91,0.4,71.47,0.4
		c61.04,0,98.91-27.62,98.91-80.85C171.38,178.09,157.47,154.44,126.57,147.73 M69.39,244.75c-6.96,0-10.81,0-16.22-0.79v-70.99
		c4.24-0.39,7.72-0.39,11.19-0.39c44.04,0,52.17,15.78,52.17,35.49C116.53,225.82,111.88,244.75,69.39,244.75"/>
	<polygon fill="#C61037" points="791.71,62.05 791.71,21.68 842.32,13.87 842.32,62.05 	"/>
</g>
</svg>
