<svg preserveAspectRatio="none" width="100%" height="100%" overflow="visible" style="display: block;" viewBox="0 0 20 20" fill="none" xmlns="http://www.w3.org/2000/svg">
<g id="Icon">
<mask id="mask0_0_25" style="mask-type:alpha" maskUnits="userSpaceOnUse" x="0" y="0" width="20" height="20">
<rect id="Bounding box" width="20" height="20" fill="var(--fill-0, #D9D9D9)"/>
</mask>
<g mask="url(#mask0_0_25)">
<path id="language" d="M6.77083 17.6771C5.75694 17.2396 4.87153 16.6424 4.11458 15.8854C3.35764 15.1285 2.76042 14.2431 2.32292 13.2292C1.88542 12.2153 1.66667 11.1354 1.66667 9.98958C1.66667 8.84375 1.88542 7.76736 2.32292 6.76042C2.76042 5.75347 3.35764 4.87153 4.11458 4.11458C4.87153 3.35764 5.75694 2.76042 6.77083 2.32292C7.78472 1.88542 8.86458 1.66667 10.0104 1.66667C11.1562 1.66667 12.2326 1.88542 13.2396 2.32292C14.2465 2.76042 15.1285 3.35764 15.8854 4.11458C16.6424 4.87153 17.2396 5.75347 17.6771 6.76042C18.1146 7.76736 18.3333 8.84375 18.3333 9.98958C18.3333 11.1354 18.1146 12.2153 17.6771 13.2292C17.2396 14.2431 16.6424 15.1285 15.8854 15.8854C15.1285 16.6424 14.2465 17.2396 13.2396 17.6771C12.2326 18.1146 11.1562 18.3333 10.0104 18.3333C8.86458 18.3333 7.78472 18.1146 6.77083 17.6771ZM10 16.625C10.3611 16.125 10.6736 15.6042 10.9375 15.0625C11.2014 14.5208 11.4167 13.9444 11.5833 13.3333H8.41667C8.58333 13.9444 8.79861 14.5208 9.0625 15.0625C9.32639 15.6042 9.63889 16.125 10 16.625ZM7.83333 16.2917C7.58333 15.8333 7.36458 15.3576 7.17708 14.8646C6.98958 14.3715 6.83333 13.8611 6.70833 13.3333H4.25C4.65278 14.0278 5.15625 14.6319 5.76042 15.1458C6.36458 15.6597 7.05556 16.0417 7.83333 16.2917ZM12.1667 16.2917C12.9444 16.0417 13.6354 15.6597 14.2396 15.1458C14.8438 14.6319 15.3472 14.0278 15.75 13.3333H13.2917C13.1667 13.8611 13.0104 14.3715 12.8229 14.8646C12.6354 15.3576 12.4167 15.8333 12.1667 16.2917ZM3.54167 11.6667H6.375C6.33333 11.3889 6.30208 11.1146 6.28125 10.8437C6.26042 10.5729 6.25 10.2917 6.25 10C6.25 9.70833 6.26042 9.42708 6.28125 9.15625C6.30208 8.88542 6.33333 8.61111 6.375 8.33333H3.54167C3.47222 8.61111 3.42014 8.88542 3.38542 9.15625C3.35069 9.42708 3.33333 9.70833 3.33333 10C3.33333 10.2917 3.35069 10.5729 3.38542 10.8437C3.42014 11.1146 3.47222 11.3889 3.54167 11.6667ZM8.04167 11.6667H11.9583C12 11.3889 12.0313 11.1146 12.0521 10.8437C12.0729 10.5729 12.0833 10.2917 12.0833 10C12.0833 9.70833 12.0729 9.42708 12.0521 9.15625C12.0313 8.88542 12 8.61111 11.9583 8.33333H8.04167C8 8.61111 7.96875 8.88542 7.94792 9.15625C7.92708 9.42708 7.91667 9.70833 7.91667 10C7.91667 10.2917 7.92708 10.5729 7.94792 10.8437C7.96875 11.1146 8 11.3889 8.04167 11.6667ZM13.625 11.6667H16.4583C16.5278 11.3889 16.5799 11.1146 16.6146 10.8437C16.6493 10.5729 16.6667 10.2917 16.6667 10C16.6667 9.70833 16.6493 9.42708 16.6146 9.15625C16.5799 8.88542 16.5278 8.61111 16.4583 8.33333H13.625C13.6667 8.61111 13.6979 8.88542 13.7188 9.15625C13.7396 9.42708 13.75 9.70833 13.75 10C13.75 10.2917 13.7396 10.5729 13.7188 10.8437C13.6979 11.1146 13.6667 11.3889 13.625 11.6667ZM13.2917 6.66667H15.75C15.3472 5.97222 14.8438 5.36806 14.2396 4.85417C13.6354 4.34028 12.9444 3.95833 12.1667 3.70833C12.4167 4.16667 12.6354 4.64236 12.8229 5.13542C13.0104 5.62847 13.1667 6.13889 13.2917 6.66667ZM8.41667 6.66667H11.5833C11.4167 6.05556 11.2014 5.47917 10.9375 4.9375C10.6736 4.39583 10.3611 3.875 10 3.375C9.63889 3.875 9.32639 4.39583 9.0625 4.9375C8.79861 5.47917 8.58333 6.05556 8.41667 6.66667ZM4.25 6.66667H6.70833C6.83333 6.13889 6.98958 5.62847 7.17708 5.13542C7.36458 4.64236 7.58333 4.16667 7.83333 3.70833C7.05556 3.95833 6.36458 4.34028 5.76042 4.85417C5.15625 5.36806 4.65278 5.97222 4.25 6.66667Z" fill="var(--fill-0, white)"/>
</g>
</g>
</svg>
